<svg width="87" height="35" viewBox="0 0 87 35" fill="none" xmlns="http://www.w3.org/2000/svg">
<g filter="url(#filter0_d_1_2)">
<path d="M16.1875 4.15625C16.2917 4.15625 16.3438 4.27083 16.3438 4.5L16.75 7.82812C16.7917 8.03646 16.8125 8.17188 16.8125 8.23438C16.8125 8.28646 16.7292 8.3125 16.5625 8.3125C16.4062 8.3125 16.3073 8.29167 16.2656 8.25C16.224 8.20833 16.1823 8.14062 16.1406 8.04688C16.099 7.94271 16.0469 7.82812 15.9844 7.70312C15.9323 7.57812 15.875 7.45312 15.8125 7.32812C15.5938 6.84896 15.25 6.375 14.7812 5.90625C13.6354 4.80208 12.3438 4.25 10.9062 4.25C10.0417 4.25 9.22396 4.53125 8.45312 5.09375C7.68229 5.65625 7.29688 6.32292 7.29688 7.09375C7.29688 7.85417 7.4375 8.51562 7.71875 9.07812C8.01042 9.64062 8.39062 10.1615 8.85938 10.6406C9.32812 11.1198 9.86458 11.5781 10.4688 12.0156C11.0729 12.4531 11.6875 12.8958 12.3125 13.3438C13.9688 14.5 15.1458 15.4896 15.8438 16.3125C16.9375 17.5833 17.5312 19.0104 17.625 20.5938C17.625 22.3646 16.9427 23.7812 15.5781 24.8438C14.224 25.8958 12.6458 26.4219 10.8438 26.4219C9.6875 26.4219 8.76562 26.3021 8.07812 26.0625C7.40104 25.8333 6.93229 25.6667 6.67188 25.5625C6.41146 25.4583 6.21875 25.4062 6.09375 25.4062C5.97917 25.4062 5.90625 25.4115 5.875 25.4219L5.10938 25.5781C4.97396 25.5781 4.89062 25.4688 4.85938 25.25C4.55729 22.6667 4.40625 21.2969 4.40625 21.1406C4.40625 20.974 4.41667 20.8646 4.4375 20.8125C4.46875 20.75 4.54167 20.7188 4.65625 20.7188C4.94792 20.7188 5.21354 21.1354 5.45312 21.9688C6.54688 24.3125 8.36458 25.4844 10.9062 25.4844C12.0729 25.4844 13.0677 25.1302 13.8906 24.4219C14.724 23.7135 15.1406 22.7917 15.1406 21.6562C15.1406 19.8438 14.0573 18.1562 11.8906 16.5938C11.276 16.1562 10.3906 15.5469 9.23438 14.7656C8.07812 13.9844 7.15625 13.2031 6.46875 12.4219C5.39583 11.2135 4.85938 9.86979 4.85938 8.39062C4.85938 6.90104 5.44792 5.68229 6.625 4.73438C7.8125 3.78646 9.17188 3.3125 10.7031 3.3125C11.4948 3.3125 12.3646 3.44792 13.3125 3.71875C14.2708 3.98958 14.9375 4.17188 15.3125 4.26562L16.1875 4.15625ZM31.5938 21.0781L31.5625 17.7812C31.5625 16.4375 31.4479 15.4948 31.2188 14.9531C30.9896 14.4115 30.6979 14.0052 30.3438 13.7344C29.9896 13.4531 29.5104 13.3125 28.9062 13.3125C28.3125 13.3125 27.0469 13.7812 25.1094 14.7188C24.849 14.875 24.7135 15.0208 24.7031 15.1562V23.5625C24.7031 24.6146 25.2656 25.2188 26.3906 25.375C26.8802 25.4479 27.125 25.5677 27.125 25.7344C27.125 25.8906 27.0729 25.9792 26.9688 26H20C19.8958 25.9792 19.8438 25.9062 19.8438 25.7812C19.8438 25.5833 20.0885 25.4479 20.5781 25.375C21.7031 25.2188 22.2656 24.6146 22.2656 23.5625V14.5938C22.2656 14.1562 22.026 13.8542 21.5469 13.6875C21.3385 13.6146 21.1146 13.5573 20.875 13.5156C20.6354 13.4635 20.4427 13.4167 20.2969 13.375C20.1615 13.3333 20.0729 13.2969 20.0312 13.2656C20 13.224 19.9844 13.1458 19.9844 13.0312C19.9844 12.9062 20.0625 12.8021 20.2188 12.7188L24.2031 10.8438C24.3281 10.7812 24.4062 10.75 24.4375 10.75C24.6146 10.75 24.7031 10.875 24.7031 11.125V13.5625C24.7344 13.6667 24.776 13.7188 24.8281 13.7188C24.8906 13.7188 25.1146 13.625 25.5 13.4375C26.3958 12.9896 27.2969 12.5573 28.2031 12.1406C29.1094 11.724 29.8594 11.5156 30.4531 11.5156C32.8594 11.5156 34.0625 13.7083 34.0625 18.0938L33.9219 22.6562V23.5625C33.9219 24.375 34.3281 24.9062 35.1406 25.1562C35.4844 25.2708 35.8125 25.3542 36.125 25.4062C36.4479 25.4479 36.6562 25.4896 36.75 25.5312C36.8542 25.5729 36.9062 25.6562 36.9062 25.7812C36.9062 25.9062 36.8542 25.9792 36.75 26H29.2188C29.1146 25.9792 29.0625 25.9062 29.0625 25.7812C29.0625 25.5833 29.3073 25.4479 29.7969 25.375C30.9115 25.2188 31.4688 24.5729 31.4688 23.4375C31.5521 22.9167 31.5938 22.1302 31.5938 21.0781ZM40.8281 17.7656C40.651 17.7656 40.5625 18.1458 40.5625 18.9062C40.5625 20.5208 41.0417 21.875 42 22.9688C42.9583 24.0625 44.1458 24.6094 45.5625 24.6094C46.9896 24.6094 48.3594 23.9948 49.6719 22.7656C49.6927 22.7448 49.7188 22.7344 49.75 22.7344H49.8281C49.8906 22.7344 49.9479 22.7865 50 22.8906C50.0625 22.9844 50.1198 23.0469 50.1719 23.0781C48.9635 24.5469 47.5417 25.5625 45.9062 26.125C45.3438 26.3229 44.7083 26.4219 44 26.4219C43.2917 26.4219 42.5729 26.2292 41.8438 25.8438C41.1146 25.4479 40.4896 24.9323 39.9688 24.2969C38.8646 22.974 38.3125 21.3281 38.3125 19.3594C38.3125 17.3802 38.9115 15.5781 40.1094 13.9531C41.3177 12.3281 42.974 11.5156 45.0781 11.5156C46.5885 11.5156 47.8229 12.1927 48.7812 13.5469C49.7396 14.8906 50.2188 16.0729 50.2188 17.0938C50.2188 17.5417 50.1094 17.7656 49.8906 17.7656H40.8281ZM41 16.2656C41 16.4635 41.0938 16.5625 41.2812 16.5625H47.1719C47.4427 16.5625 47.5781 16.401 47.5781 16.0781C47.5781 15.3281 47.2396 14.5625 46.5625 13.7812C45.8958 12.9896 45.1615 12.5938 44.3594 12.5938C43.5781 12.5938 42.8646 12.9479 42.2188 13.6562C41.5833 14.3646 41.1771 15.1719 41 16.0781V16.2656ZM57.0781 13.9062C57.0781 14.1562 57.1146 14.2812 57.1875 14.2812C57.2604 14.2812 57.3125 14.2656 57.3438 14.2344C57.375 14.1927 57.5938 13.9479 58 13.5C59.1771 12.1875 60.3698 11.5312 61.5781 11.5312C63.1615 11.5312 64.3229 11.8854 65.0625 12.5938C65.9688 13.4896 66.4219 14.9948 66.4219 17.1094V23.625C66.4219 24.6458 66.9844 25.2396 68.1094 25.4062C68.599 25.4688 68.8438 25.5781 68.8438 25.7344C68.8438 25.8906 68.7917 25.9792 68.6875 26H61.7188C61.6146 25.9792 61.5625 25.9062 61.5625 25.7812C61.5625 25.5938 61.8073 25.4688 62.2969 25.4062C63.4219 25.2396 63.9844 24.6458 63.9844 23.625V17.2656C63.9844 15.7344 63.875 14.7396 63.6562 14.2812C63.2396 13.3646 62.3698 12.9062 61.0469 12.9062C60.2344 12.9062 59.3698 13.2552 58.4531 13.9531C57.5365 14.6406 57.0781 15.401 57.0781 16.2344V23.625C57.0781 24.6458 57.6406 25.2396 58.7656 25.4062C59.2552 25.4688 59.5 25.5781 59.5 25.7344C59.5 25.8906 59.4479 25.9792 59.3438 26H52.375C52.2708 25.9792 52.2188 25.9062 52.2188 25.7812C52.2188 25.5938 52.4635 25.4688 52.9531 25.4062C54.0781 25.2396 54.6406 24.6458 54.6406 23.625V4.14062C54.6406 3.70312 54.401 3.40104 53.9219 3.23438C53.7135 3.16146 53.4896 3.10417 53.25 3.0625C53.0104 3.01042 52.8177 2.96354 52.6719 2.92188C52.5365 2.88021 52.4479 2.84375 52.4062 2.8125C52.375 2.77083 52.3594 2.69271 52.3594 2.57812C52.3594 2.45312 52.4375 2.34896 52.5938 2.26562L56.5781 0.390625C56.7031 0.328125 56.7812 0.296875 56.8125 0.296875C56.9896 0.296875 57.0781 0.421875 57.0781 0.671875V13.9062ZM80.0625 23.4219C80.0625 23.6927 80.1875 23.9115 80.4375 24.0781C80.6979 24.2344 80.9948 24.3125 81.3281 24.3125C81.6615 24.3125 81.9375 24.2292 82.1562 24.0625C82.3854 23.8854 82.5417 23.7969 82.625 23.7969C82.7083 23.7969 82.75 23.9115 82.75 24.1406C82.75 24.3594 82.6458 24.5469 82.4375 24.7031C80.875 25.849 79.8177 26.4219 79.2656 26.4219C78.599 26.4219 78.0573 25.7292 77.6406 24.3438C77.6094 24.2396 77.5833 24.1927 77.5625 24.2031C76.2708 25.1719 75.4583 25.7552 75.125 25.9531C74.2708 26.4427 73.4115 26.5208 72.5469 26.1875C71.6927 25.8542 71.0729 25.3021 70.6875 24.5312C70.5 24.1354 70.4062 23.7135 70.4062 23.2656C70.4062 22.3802 70.7344 21.6771 71.3906 21.1562C72.0469 20.6354 73.2969 20.1354 75.1406 19.6562C75.7656 19.4896 76.3229 19.276 76.8125 19.0156C77.3021 18.7552 77.5573 18.5885 77.5781 18.5156C77.6094 18.4427 77.625 18.375 77.625 18.3125V15.3125C77.625 14.1354 77.1667 13.3073 76.25 12.8281C75.9479 12.6719 75.5833 12.5938 75.1562 12.5938C74.7396 12.5938 74.3125 12.7604 73.875 13.0938C73.4479 13.4271 73.2344 13.901 73.2344 14.5156L73.3125 15.125C73.25 15.25 72.875 15.4583 72.1875 15.75C71.5 16.0417 71.1042 16.1979 71 16.2188C70.8333 16.2188 70.75 16.0208 70.75 15.625C70.75 15.2188 70.8698 14.7708 71.1094 14.2812C71.349 13.7917 71.6875 13.3438 72.125 12.9375C73.1458 11.9896 74.3125 11.5156 75.625 11.5156C76.9375 11.5156 78.0052 11.8802 78.8281 12.6094C79.651 13.3281 80.0625 14.1875 80.0625 15.1875V23.4219ZM72.8594 22.9688C72.8594 23.4688 73.0521 23.9062 73.4375 24.2812C73.8229 24.6458 74.2604 24.8281 74.75 24.8281C75.25 24.8281 75.8542 24.6198 76.5625 24.2031C77.2708 23.776 77.625 23.3385 77.625 22.8906V19.7188C77.625 19.6042 77.599 19.5469 77.5469 19.5469C77.4948 19.5469 77.4583 19.5521 77.4375 19.5625L73.8125 21.25C73.4375 21.5208 73.1823 21.75 73.0469 21.9375C72.9219 22.125 72.8594 22.4688 72.8594 22.9688Z" fill="#0E43FE"/>
<path d="M16.1875 4.15625V3.15625H16.1252L16.0635 3.16397L16.1875 4.15625ZM16.3438 4.5H15.3438V4.56081L15.3511 4.62117L16.3438 4.5ZM16.75 7.82812L15.7574 7.94929L15.762 7.987L15.7694 8.02424L16.75 7.82812ZM16.1406 8.04688L15.2121 8.41827L15.2192 8.43578L15.2268 8.45301L16.1406 8.04688ZM15.9844 7.70312L15.0613 8.08774L15.0745 8.11953L15.0899 8.15034L15.9844 7.70312ZM15.8125 7.32812L14.9028 7.74342L14.9102 7.75951L14.9181 7.77534L15.8125 7.32812ZM14.7812 5.90625L15.4884 5.19914L15.4818 5.1926L15.4751 5.18617L14.7812 5.90625ZM7.71875 9.07812L6.82432 9.52534L6.82761 9.53191L6.831 9.53844L7.71875 9.07812ZM10.4688 12.0156L11.0553 11.2057L10.4688 12.0156ZM12.3125 13.3438L11.7299 14.1566L11.7401 14.1637L12.3125 13.3438ZM15.8438 16.3125L15.0811 16.9593L15.0858 16.9648L15.8438 16.3125ZM17.625 20.5938H18.625V20.5642L18.6233 20.5346L17.625 20.5938ZM15.5781 24.8438L16.1916 25.6334L16.1925 25.6328L15.5781 24.8438ZM8.07812 26.0625L8.40721 25.1182L8.39872 25.1153L8.07812 26.0625ZM5.875 25.4219L6.07496 26.4017L6.13403 26.3896L6.19123 26.3706L5.875 25.4219ZM5.10938 25.5781V26.5781H5.21037L5.30934 26.5579L5.10938 25.5781ZM4.85938 25.25L3.86614 25.3661L3.86762 25.3788L3.86943 25.3914L4.85938 25.25ZM4.4375 20.8125L3.54307 20.3653L3.52447 20.4025L3.50902 20.4411L4.4375 20.8125ZM5.45312 21.9688L4.49206 22.2451L4.51375 22.3205L4.54694 22.3916L5.45312 21.9688ZM13.8906 24.4219L13.243 23.6599L13.2383 23.664L13.8906 24.4219ZM11.8906 16.5938L12.4756 15.7826L12.4706 15.7791L11.8906 16.5938ZM6.46875 12.4219L7.21947 11.7612L7.21651 11.7579L6.46875 12.4219ZM6.625 4.73438L6.00114 3.95283L5.99779 3.95553L6.625 4.73438ZM13.3125 3.71875L13.0378 4.68028L13.0405 4.68106L13.3125 3.71875ZM15.3125 4.26562L15.07 5.23577L15.2512 5.28107L15.4365 5.2579L15.3125 4.26562ZM16.1875 5.15625C16.0178 5.15625 15.8297 5.10526 15.6645 4.98414C15.5105 4.87119 15.4316 4.73796 15.3943 4.65599C15.3309 4.51656 15.3438 4.42988 15.3438 4.5H17.3438C17.3438 4.34095 17.3305 4.0824 17.2151 3.82838C17.1518 3.68912 17.0403 3.51292 16.8472 3.37133C16.643 3.22156 16.4093 3.15625 16.1875 3.15625V5.15625ZM15.3511 4.62117L15.7574 7.94929L17.7426 7.70696L17.3364 4.37883L15.3511 4.62117ZM15.7694 8.02424C15.7887 8.12078 15.8012 8.19071 15.8085 8.23799C15.8121 8.2615 15.8136 8.27424 15.8141 8.27851C15.8149 8.28621 15.8125 8.2679 15.8125 8.23438H17.8125C17.8125 8.05346 17.7671 7.81476 17.7306 7.63201L15.7694 8.02424ZM15.8125 8.23438C15.8125 7.94266 15.9433 7.69801 16.1129 7.53902C16.2552 7.40563 16.3977 7.35539 16.4517 7.33849C16.5584 7.30517 16.619 7.3125 16.5625 7.3125V9.3125C16.6727 9.3125 16.8583 9.30681 17.0483 9.24745C17.1828 9.20542 17.8125 8.96221 17.8125 8.23438H15.8125ZM16.5625 7.3125C16.5205 7.3125 16.5327 7.30898 16.5771 7.31833C16.601 7.32337 16.6507 7.3355 16.7138 7.36353C16.7758 7.39111 16.8743 7.44448 16.9727 7.54289L15.5585 8.95711C15.7833 9.18185 16.0461 9.25039 16.1651 9.27542C16.3084 9.3056 16.4482 9.3125 16.5625 9.3125V7.3125ZM16.9727 7.54289C17.0224 7.59255 17.0479 7.63273 17.0548 7.64387C17.0628 7.65694 17.0621 7.65795 17.0544 7.64074L15.2268 8.45301C15.287 8.5884 15.3885 8.78707 15.5585 8.95711L16.9727 7.54289ZM17.0691 7.67548C17.015 7.54025 16.9508 7.39997 16.8788 7.25591L15.0899 8.15034C15.1429 8.25628 15.1829 8.34516 15.2121 8.41827L17.0691 7.67548ZM16.9075 7.31851C16.8463 7.17166 16.7794 7.02579 16.7069 6.88091L14.9181 7.77534C14.9706 7.88046 15.0183 7.98459 15.0613 8.08774L16.9075 7.31851ZM16.7222 6.91283C16.4429 6.30108 16.0206 5.73137 15.4884 5.19914L14.0741 6.61336C14.4794 7.01863 14.7446 7.39683 14.9028 7.74342L16.7222 6.91283ZM15.4751 5.18617C14.1647 3.92337 12.6312 3.25 10.9062 3.25V5.25C12.0563 5.25 13.1061 5.6808 14.0874 6.62633L15.4751 5.18617ZM10.9062 3.25C9.80779 3.25 8.787 3.61217 7.86366 4.28596L9.04259 5.90154C9.66092 5.45033 10.2755 5.25 10.9062 5.25V3.25ZM7.86366 4.28596C6.90349 4.98662 6.29688 5.92713 6.29688 7.09375H8.29688C8.29688 6.7187 8.46109 6.32588 9.04259 5.90154L7.86366 4.28596ZM6.29688 7.09375C6.29688 7.97735 6.4606 8.7979 6.82432 9.52534L8.61318 8.63091C8.4144 8.23335 8.29688 7.73098 8.29688 7.09375H6.29688ZM6.831 9.53844C7.17074 10.1937 7.61067 10.7942 8.14454 11.3399L9.57421 9.94133C9.17058 9.52874 8.85009 9.08759 8.6065 8.61781L6.831 9.53844ZM8.14454 11.3399C8.65699 11.8638 9.2373 12.3585 9.88224 12.8256L11.0553 11.2057C10.4919 10.7977 9.99926 10.3758 9.57421 9.94133L8.14454 11.3399ZM9.88224 12.8256C10.4878 13.2641 11.1037 13.7077 11.73 14.1566L12.895 12.5309C12.2713 12.0839 11.6581 11.6422 11.0553 11.2057L9.88224 12.8256ZM11.7401 14.1637C13.3757 15.3055 14.4679 16.2363 15.0811 16.9593L16.6064 15.6657C15.8238 14.7429 14.5618 13.6945 12.8849 12.5238L11.7401 14.1637ZM15.0858 16.9648C16.0454 18.0797 16.5467 19.3012 16.6267 20.6529L18.6233 20.5346C18.5158 18.7196 17.8296 17.0869 16.6017 15.6602L15.0858 16.9648ZM16.625 20.5938C16.625 22.0648 16.0783 23.1869 14.9638 24.0547L16.1925 25.6328C17.8071 24.3756 18.625 22.6644 18.625 20.5938H16.625ZM14.9646 24.0541C13.7952 24.9626 12.4358 25.4219 10.8438 25.4219V27.4219C12.8559 27.4219 14.6527 26.8291 16.1916 25.6334L14.9646 24.0541ZM10.8438 25.4219C9.74166 25.4219 8.9454 25.3058 8.4072 25.1182L7.74905 27.0068C8.58585 27.2984 9.63334 27.4219 10.8438 27.4219V25.4219ZM8.39872 25.1153C7.72055 24.8857 7.27548 24.7269 7.04327 24.634L6.30048 26.491C6.5891 26.6064 7.08154 26.7809 7.75753 27.0097L8.39872 25.1153ZM7.04327 24.634C6.77535 24.5269 6.42682 24.4062 6.09375 24.4062V26.4062C6.075 26.4062 6.06096 26.4053 6.05244 26.4045C6.04383 26.4037 6.03899 26.4029 6.03842 26.4028C6.03796 26.4028 6.04822 26.4045 6.07112 26.4107C6.11836 26.4234 6.19315 26.448 6.30048 26.491L7.04327 24.634ZM6.09375 24.4062C6.02437 24.4062 5.95138 24.4077 5.88188 24.4127C5.83796 24.4158 5.70292 24.4251 5.55877 24.4732L6.19123 26.3706C6.15337 26.3832 6.12232 26.3907 6.10237 26.3951C6.08162 26.3997 6.06514 26.4024 6.05459 26.404C6.04373 26.4056 6.03573 26.4065 6.03134 26.407C6.02901 26.4072 6.02726 26.4074 6.02616 26.4075C6.02505 26.4076 6.02444 26.4076 6.02437 26.4076C6.02431 26.4076 6.02587 26.4075 6.02925 26.4074C6.03259 26.4072 6.03726 26.407 6.04339 26.4068C6.05582 26.4065 6.07242 26.4062 6.09375 26.4062V24.4062ZM5.67504 24.4421L4.90941 24.5983L5.30934 26.5579L6.07496 26.4017L5.67504 24.4421ZM5.10938 24.5781C5.21387 24.5781 5.33892 24.6003 5.46479 24.6632C5.59017 24.7259 5.68065 24.8112 5.74074 24.8901C5.84713 25.0297 5.85397 25.1411 5.84932 25.1086L3.86943 25.3914C3.89603 25.5776 3.96017 25.8531 4.14988 26.1021C4.37726 26.4006 4.72396 26.5781 5.10938 26.5781V24.5781ZM5.85261 25.1339C5.70164 23.8428 5.58866 22.8571 5.51351 22.1756C5.47589 21.8344 5.44804 21.5721 5.42971 21.3869C5.40836 21.1711 5.40625 21.1176 5.40625 21.1406H3.40625C3.40625 21.2417 3.42302 21.418 3.43943 21.5838C3.45886 21.7801 3.48765 22.051 3.52556 22.3948C3.60144 23.083 3.71503 24.0738 3.86614 25.3661L5.85261 25.1339ZM5.40625 21.1406C5.40625 21.1091 5.40675 21.0838 5.40749 21.0641C5.40825 21.044 5.40915 21.0327 5.40956 21.0284C5.41006 21.0231 5.40943 21.0326 5.40561 21.0523C5.4036 21.0627 5.40014 21.0789 5.3945 21.0994C5.38898 21.1195 5.38003 21.1488 5.36598 21.1839L3.50902 20.4411C3.44369 20.6044 3.42591 20.7617 3.41857 20.8388C3.40925 20.9366 3.40625 21.04 3.40625 21.1406H5.40625ZM5.33193 21.2597C5.22751 21.4686 5.05924 21.5972 4.90954 21.6613C4.77911 21.7172 4.67902 21.7188 4.65625 21.7188V19.7188C4.42307 19.7188 3.83504 19.7814 3.54307 20.3653L5.33193 21.2597ZM4.65625 21.7188C4.47404 21.7188 4.34019 21.6493 4.27132 21.5978C4.21285 21.5541 4.2044 21.5271 4.23099 21.5688C4.28741 21.6573 4.38202 21.8623 4.49206 22.2451L6.41419 21.6924C6.28465 21.2418 6.12666 20.8219 5.91745 20.4937C5.73003 20.1997 5.32919 19.7188 4.65625 19.7188V21.7188ZM4.54694 22.3916C5.15773 23.7005 5.999 24.7394 7.09487 25.4459C8.19184 26.1532 9.4775 26.4844 10.9062 26.4844V24.4844C9.79333 24.4844 8.89931 24.2297 8.17857 23.765C7.45673 23.2996 6.84227 22.5808 6.35931 21.5459L4.54694 22.3916ZM10.9062 26.4844C12.2931 26.4844 13.5245 26.0564 14.543 25.1798L13.2383 23.664C12.6109 24.204 11.8528 24.4844 10.9062 24.4844V26.4844ZM14.5383 25.1838C15.6047 24.2773 16.1406 23.0722 16.1406 21.6562H14.1406C14.1406 22.5111 13.8432 23.1498 13.243 23.6599L14.5383 25.1838ZM16.1406 21.6562C16.1406 19.3902 14.773 17.4395 12.4755 15.7827L11.3057 17.4048C13.3416 18.873 14.1406 20.2973 14.1406 21.6562H16.1406ZM12.4706 15.7791C11.846 15.3345 10.9526 14.7197 9.79423 13.937L8.67452 15.5942C9.82864 16.374 10.7061 16.978 11.3107 17.4084L12.4706 15.7791ZM9.79423 13.937C8.68619 13.1884 7.83539 12.4612 7.21946 11.7612L5.71804 13.0825C6.47711 13.9451 7.47006 14.7804 8.67452 15.5942L9.79423 13.937ZM7.21651 11.7579C6.28984 10.7143 5.85938 9.60165 5.85938 8.39062H3.85938C3.85938 10.1379 4.50182 11.7128 5.72099 13.0858L7.21651 11.7579ZM5.85938 8.39062C5.85938 7.2088 6.30684 6.27454 7.25221 5.51322L5.99779 3.95553C4.58899 5.09005 3.85938 6.59329 3.85938 8.39062H5.85938ZM7.24886 5.51591C8.25769 4.71062 9.39666 4.3125 10.7031 4.3125V2.3125C8.94709 2.3125 7.36731 2.8623 6.00114 3.95284L7.24886 5.51591ZM10.7031 4.3125C11.3824 4.3125 12.1583 4.429 13.0378 4.68027L13.5872 2.75723C12.5708 2.46683 11.6072 2.3125 10.7031 2.3125V4.3125ZM13.0405 4.68106C13.9981 4.95168 14.6784 5.13786 15.07 5.23577L15.555 3.29548C15.1966 3.20589 14.5435 3.02748 13.5845 2.75644L13.0405 4.68106ZM15.4365 5.2579L16.3115 5.14853L16.0635 3.16397L15.1885 3.27335L15.4365 5.2579ZM31.5938 21.0781L32.5938 21.0781L32.5937 21.0686L31.5938 21.0781ZM31.5625 17.7812L30.5625 17.7813L30.5625 17.7907L31.5625 17.7812ZM30.3438 13.7344L29.7219 14.5175L29.729 14.5232L29.7363 14.5287L30.3438 13.7344ZM25.1094 14.7188L24.6738 13.8186L24.6334 13.8382L24.5949 13.8613L25.1094 14.7188ZM24.7031 15.1562L23.7061 15.0796L23.7031 15.1178V15.1562H24.7031ZM26.3906 25.375L26.5379 24.3859L26.5282 24.3845L26.3906 25.375ZM26.9688 26V27H27.0678L27.1649 26.9806L26.9688 26ZM20 26L19.8039 26.9806L19.901 27H20V26ZM20.5781 25.375L20.4405 24.3845L20.4308 24.3859L20.5781 25.375ZM21.5469 13.6875L21.2165 14.6314L21.2184 14.632L21.5469 13.6875ZM20.875 13.5156L20.6626 14.4928L20.683 14.4972L20.7037 14.5008L20.875 13.5156ZM20.2969 13.375L20.0028 14.3308L20.0124 14.3337L20.0222 14.3365L20.2969 13.375ZM20.0312 13.2656L19.2313 13.8656L19.317 13.9799L19.4313 14.0656L20.0312 13.2656ZM20.2188 12.7188L19.793 11.8139L19.7703 11.8246L19.7482 11.8364L20.2188 12.7188ZM24.2031 10.8438L24.6289 11.7486L24.6397 11.7435L24.6503 11.7382L24.2031 10.8438ZM24.7031 13.5625H23.7031V13.7093L23.7453 13.8498L24.7031 13.5625ZM25.5 13.4375L25.9375 14.3368L25.9472 14.3319L25.5 13.4375ZM34.0625 18.0938L35.062 18.1246L35.0625 18.1092V18.0938H34.0625ZM33.9219 22.6562L32.9223 22.6254L32.9219 22.6408V22.6562H33.9219ZM35.1406 25.1562L35.4569 24.2076L35.4458 24.2039L35.4347 24.2005L35.1406 25.1562ZM36.125 25.4062L35.9606 26.3926L35.9788 26.3957L35.997 26.398L36.125 25.4062ZM36.75 25.5312L36.3439 26.4451L36.3611 26.4527L36.3786 26.4597L36.75 25.5312ZM36.75 26V27H36.849L36.9461 26.9806L36.75 26ZM29.2188 26L29.0226 26.9806L29.1197 27H29.2188V26ZM29.7969 25.375L29.658 24.3846L29.6496 24.3859L29.7969 25.375ZM31.4688 23.4375L30.4813 23.2795L30.4688 23.358V23.4375H31.4688ZM32.5937 21.0686L32.5625 17.7718L30.5625 17.7907L30.5938 21.0876L32.5937 21.0686ZM32.5625 17.7812C32.5625 16.4322 32.4548 15.3082 32.1397 14.5635L30.2978 15.3428C30.4411 15.6814 30.5625 16.4428 30.5625 17.7812H32.5625ZM32.1397 14.5635C31.8638 13.9114 31.4804 13.3447 30.9512 12.94L29.7363 14.5287C29.9155 14.6657 30.1153 14.9115 30.2978 15.3428L32.1397 14.5635ZM30.9656 12.9513C30.3832 12.4887 29.6604 12.3125 28.9062 12.3125V14.3125C29.3604 14.3125 29.596 14.4175 29.7219 14.5175L30.9656 12.9513ZM28.9062 12.3125C28.4149 12.3125 27.8029 12.4898 27.1644 12.7263C26.4894 12.9763 25.6566 13.343 24.6738 13.8186L25.5449 15.6189C26.4996 15.157 27.2684 14.8206 27.859 14.6018C28.4862 14.3695 28.8038 14.3125 28.9062 14.3125V12.3125ZM24.5949 13.8613C24.4216 13.9652 24.2357 14.0968 24.0797 14.2649C23.9273 14.429 23.7351 14.7027 23.7061 15.0796L25.7002 15.2329C25.6816 15.4744 25.5622 15.6075 25.5453 15.6258C25.5247 15.648 25.5367 15.6285 25.6239 15.5762L24.5949 13.8613ZM23.7031 15.1562V23.5625H25.7031V15.1562H23.7031ZM23.7031 23.5625C23.7031 24.2693 23.896 24.9522 24.3931 25.4861C24.8809 26.01 25.5477 26.2675 26.2531 26.3655L26.5282 24.3845C26.1085 24.3262 25.9316 24.2035 25.8569 24.1233C25.7915 24.053 25.7031 23.9077 25.7031 23.5625H23.7031ZM26.2433 26.3641C26.4551 26.3956 26.5181 26.4257 26.5019 26.4177C26.4907 26.4123 26.4074 26.3715 26.3189 26.2678C26.2162 26.1477 26.125 25.962 26.125 25.7344H28.125C28.125 25.0635 27.6112 24.734 27.381 24.6213C27.1199 24.4936 26.8157 24.4273 26.5379 24.3859L26.2433 26.3641ZM26.125 25.7344C26.125 25.7199 26.1243 25.5804 26.224 25.4109C26.278 25.3192 26.3569 25.2272 26.4636 25.1524C26.5697 25.0782 26.6786 25.0382 26.7726 25.0194L27.1649 26.9806C27.4853 26.9165 27.7719 26.7241 27.9479 26.425C28.0996 26.167 28.125 25.9051 28.125 25.7344H26.125ZM26.9688 25H20V27H26.9688V25ZM20.1961 25.0194C20.344 25.049 20.5481 25.1407 20.6965 25.3484C20.8311 25.5368 20.8438 25.7153 20.8438 25.7812H18.8438C18.8438 25.9722 18.8825 26.2497 19.0691 26.5109C19.2696 26.7916 19.5518 26.9302 19.8039 26.9806L20.1961 25.0194ZM20.8438 25.7812C20.8438 25.9547 20.7851 26.1147 20.6957 26.2364C20.6161 26.3448 20.5345 26.3935 20.5114 26.4063C20.4866 26.42 20.4868 26.4156 20.5298 26.4034C20.5703 26.3919 20.6337 26.3777 20.7254 26.3641L20.4308 24.3859C20.1444 24.4286 19.8214 24.5024 19.5433 24.6562C19.2503 24.8183 18.8438 25.1762 18.8438 25.7812H20.8438ZM20.7157 26.3655C21.421 26.2675 22.0878 26.01 22.5756 25.4861C23.0727 24.9522 23.2656 24.2693 23.2656 23.5625H21.2656C21.2656 23.9077 21.1773 24.053 21.1119 24.1233C21.0372 24.2035 20.8602 24.3262 20.4406 24.3845L20.7157 26.3655ZM23.2656 23.5625V14.5938H21.2656V23.5625H23.2656ZM23.2656 14.5938C23.2656 14.1814 23.1481 13.769 22.8694 13.4177C22.5999 13.0778 22.2388 12.8694 21.8754 12.743L21.2184 14.632C21.275 14.6517 21.3042 14.6684 21.3151 14.6755C21.3248 14.6818 21.3166 14.6783 21.3024 14.6605C21.2957 14.6519 21.2889 14.6417 21.2828 14.6303C21.2767 14.619 21.2723 14.6083 21.2694 14.5992C21.2633 14.5805 21.2656 14.5761 21.2656 14.5938H23.2656ZM21.8772 12.7436C21.6122 12.6509 21.3346 12.5805 21.0463 12.5304L20.7037 14.5008C20.8946 14.534 21.0649 14.5783 21.2165 14.6314L21.8772 12.7436ZM21.0874 12.5384C20.8577 12.4885 20.6883 12.4468 20.5716 12.4135L20.0222 14.3365C20.1971 14.3865 20.4131 14.4386 20.6626 14.4928L21.0874 12.5384ZM20.591 12.4192C20.5667 12.4118 20.5478 12.4055 20.5335 12.4005C20.5189 12.3954 20.5114 12.3925 20.5097 12.3917C20.5072 12.3907 20.5161 12.3942 20.5326 12.4028C20.5413 12.4073 20.554 12.4142 20.5697 12.4238C20.5851 12.4332 20.6064 12.447 20.6312 12.4656L19.4313 14.0656C19.632 14.2162 19.885 14.2946 20.0028 14.3308L20.591 12.4192ZM20.8312 12.6656C20.9401 12.8107 20.9693 12.9426 20.9767 12.9797C20.986 13.0265 20.9844 13.0487 20.9844 13.0312H18.9844C18.9844 13.1284 18.9905 13.247 19.0155 13.3719C19.0386 13.4871 19.0912 13.6789 19.2313 13.8656L20.8312 12.6656ZM20.9844 13.0312C20.9844 13.1946 20.9279 13.3461 20.843 13.4594C20.7686 13.5586 20.6964 13.5973 20.6893 13.6011L19.7482 11.8364C19.4194 12.0118 18.9844 12.3907 18.9844 13.0312H20.9844ZM20.6445 13.6236L24.6289 11.7486L23.7773 9.93893L19.793 11.8139L20.6445 13.6236ZM24.6503 11.7382C24.6745 11.7261 24.6932 11.7171 24.7071 11.7107C24.7216 11.704 24.7276 11.7016 24.7269 11.7019C24.7262 11.7022 24.7222 11.7038 24.7154 11.7062C24.7088 11.7085 24.6967 11.7126 24.68 11.7174C24.6641 11.7219 24.6373 11.729 24.6025 11.7353C24.5701 11.7412 24.5119 11.75 24.4375 11.75V9.75C24.2899 9.75 24.1732 9.78214 24.1306 9.79434C24.0726 9.81088 24.0218 9.82987 23.9841 9.84496C23.9081 9.87536 23.8293 9.91261 23.7559 9.94932L24.6503 11.7382ZM24.4375 11.75C24.3645 11.75 24.2525 11.7369 24.1279 11.6783C23.9981 11.6172 23.8937 11.5249 23.8207 11.4218C23.691 11.2387 23.7031 11.0877 23.7031 11.125H25.7031C25.7031 10.9123 25.671 10.5738 25.4527 10.2657C25.1897 9.89441 24.7922 9.75 24.4375 9.75V11.75ZM23.7031 11.125V13.5625H25.7031V11.125H23.7031ZM23.7453 13.8498C23.7774 13.957 23.8414 14.1349 23.9769 14.3044C24.1296 14.4953 24.4163 14.7188 24.8281 14.7188V12.7188C25.1878 12.7188 25.4277 12.9162 25.5387 13.055C25.6326 13.1724 25.6601 13.2722 25.661 13.2752L23.7453 13.8498ZM24.8281 14.7188C25.0199 14.7188 25.182 14.6628 25.2163 14.6516C25.288 14.6281 25.3614 14.5992 25.4291 14.5709C25.5667 14.5133 25.7385 14.4335 25.9375 14.3367L25.0625 12.5383C24.8761 12.629 24.7432 12.6898 24.6568 12.726C24.6126 12.7445 24.5941 12.7508 24.5942 12.7508C24.5943 12.7507 24.6102 12.7454 24.637 12.7393C24.6509 12.7362 24.6731 12.7316 24.7014 12.7275C24.7283 12.7237 24.7725 12.7188 24.8281 12.7188V14.7188ZM25.9472 14.3319C26.8333 13.8889 27.7246 13.4613 28.6209 13.0492L27.7854 11.2321C26.8692 11.6533 25.9583 12.0903 25.0528 12.5431L25.9472 14.3319ZM28.6209 13.0492C29.4736 12.6571 30.0697 12.5156 30.4531 12.5156V10.5156C29.6491 10.5156 28.7452 10.7908 27.7854 11.2321L28.6209 13.0492ZM30.4531 12.5156C30.8977 12.5156 31.2392 12.6151 31.513 12.7814C31.7888 12.9489 32.0514 13.2182 32.2835 13.6412C32.7641 14.5172 33.0625 15.9597 33.0625 18.0938H35.0625C35.0625 15.8423 34.7593 13.9958 34.0369 12.6791C33.6674 12.0057 33.178 11.4527 32.5514 11.0721C31.9229 10.6903 31.2117 10.5156 30.4531 10.5156V12.5156ZM33.063 18.0629L32.9223 22.6254L34.9214 22.6871L35.062 18.1246L33.063 18.0629ZM32.9219 22.6562V23.5625H34.9219V22.6562H32.9219ZM32.9219 23.5625C32.9219 24.1399 33.069 24.7028 33.4322 25.1778C33.7923 25.6487 34.2955 25.9425 34.8465 26.112L35.4347 24.2005C35.1733 24.12 35.0671 24.0232 35.0209 23.9629C34.9779 23.9066 34.9219 23.7976 34.9219 23.5625H32.9219ZM34.8244 26.1049C35.2108 26.2337 35.5899 26.3309 35.9606 26.3926L36.2894 24.4199C36.0351 24.3775 35.758 24.3079 35.4569 24.2076L34.8244 26.1049ZM35.997 26.398C36.1463 26.4173 36.2542 26.4347 36.3273 26.4493C36.3636 26.4566 36.384 26.4617 36.3923 26.464C36.4043 26.4673 36.3829 26.4624 36.3439 26.4451L37.1561 24.6174C37.0028 24.5493 36.8363 24.5115 36.7196 24.4882C36.5843 24.4611 36.4266 24.4369 36.253 24.4145L35.997 26.398ZM36.3786 26.4597C36.2626 26.4133 36.1212 26.3182 36.0192 26.155C35.9222 25.9998 35.9062 25.8557 35.9062 25.7812H37.9062C37.9062 25.5818 37.8643 25.3335 37.7152 25.095C37.5611 24.8484 37.3415 24.6908 37.1214 24.6028L36.3786 26.4597ZM35.9062 25.7812C35.9062 25.7153 35.9189 25.5368 36.0535 25.3484C36.2019 25.1407 36.406 25.049 36.5539 25.0194L36.9461 26.9806C37.1982 26.9302 37.4804 26.7916 37.6809 26.5109C37.8675 26.2497 37.9062 25.9722 37.9062 25.7812H35.9062ZM36.75 25H29.2188V27H36.75V25ZM29.4149 25.0194C29.5627 25.049 29.7669 25.1407 29.9153 25.3484C30.0498 25.5368 30.0625 25.7153 30.0625 25.7812H28.0625C28.0625 25.9722 28.1012 26.2497 28.2878 26.5109C28.4883 26.7916 28.7706 26.9302 29.0226 26.9806L29.4149 25.0194ZM30.0625 25.7812C30.0625 25.9547 30.0038 26.1147 29.9144 26.2364C29.8348 26.3448 29.7532 26.3935 29.7302 26.4063C29.7053 26.42 29.7056 26.4156 29.7485 26.4034C29.7891 26.3919 29.8525 26.3777 29.9442 26.3641L29.6496 24.3859C29.3631 24.4286 29.0401 24.5024 28.762 24.6562C28.469 24.8183 28.0625 25.1762 28.0625 25.7812H30.0625ZM29.9357 26.3653C30.6551 26.2645 31.326 25.9852 31.8079 25.4267C32.2887 24.8695 32.4688 24.1647 32.4688 23.4375H30.4688C30.4688 23.8457 30.3701 24.0316 30.2937 24.1201C30.2183 24.2075 30.0532 24.3293 29.658 24.3847L29.9357 26.3653ZM32.4562 23.5955C32.5525 22.9933 32.5938 22.142 32.5938 21.0781H30.5938C30.5938 22.1185 30.5516 22.84 30.4813 23.2795L32.4562 23.5955ZM49.6719 22.7656L50.3554 23.4955L50.3674 23.4843L50.379 23.4727L49.6719 22.7656ZM50 22.8906L49.1056 23.3378L49.1334 23.3935L49.1679 23.4453L50 22.8906ZM50.1719 23.0781L50.9441 23.7134L51.6812 22.8175L50.6864 22.2206L50.1719 23.0781ZM45.9062 26.125L45.581 25.1793L45.5743 25.1817L45.9062 26.125ZM41.8438 25.8438L41.3666 26.7227L41.3764 26.7278L41.8438 25.8438ZM39.9688 24.2969L40.7422 23.6629L40.7365 23.6561L39.9688 24.2969ZM40.1094 13.9531L39.3069 13.3564L39.3044 13.3597L40.1094 13.9531ZM48.7812 13.5469L47.965 14.1245L47.9671 14.1275L48.7812 13.5469ZM46.5625 13.7812L45.7976 14.4254L45.8022 14.4308L45.8068 14.4362L46.5625 13.7812ZM42.2188 13.6562L41.4798 12.9825L41.4744 12.9885L42.2188 13.6562ZM41 16.0781L40.0186 15.8863L40 15.9813V16.0781H41ZM40.8281 16.7656C40.3594 16.7656 40.0484 17.0406 39.8922 17.2642C39.7527 17.4638 39.689 17.678 39.655 17.824C39.5839 18.1289 39.5625 18.5072 39.5625 18.9062H41.5625C41.5625 18.5449 41.5853 18.3528 41.6028 18.2776C41.6131 18.2335 41.6047 18.3051 41.5317 18.4096C41.4905 18.4686 41.414 18.559 41.2888 18.6358C41.1552 18.7178 40.9957 18.7656 40.8281 18.7656V16.7656ZM39.5625 18.9062C39.5625 20.7346 40.1118 22.3311 41.2479 23.6278L42.7521 22.3097C41.9715 21.4189 41.5625 20.3071 41.5625 18.9062H39.5625ZM41.2479 23.6278C42.3903 24.9317 43.8491 25.6094 45.5625 25.6094V23.6094C44.4426 23.6094 43.5263 23.1933 42.7521 22.3097L41.2479 23.6278ZM45.5625 25.6094C47.3048 25.6094 48.9079 24.8512 50.3554 23.4955L48.9883 22.0357C47.8109 23.1384 46.6743 23.6094 45.5625 23.6094V25.6094ZM50.379 23.4727C50.2986 23.5532 50.1974 23.6231 50.0784 23.6707C49.9606 23.7178 49.8471 23.7344 49.75 23.7344V21.7344C49.4714 21.7344 49.1854 21.8379 48.9648 22.0585L50.379 23.4727ZM49.75 23.7344H49.8281V21.7344H49.75V23.7344ZM49.8281 23.7344C49.5548 23.7344 49.3548 23.6129 49.2453 23.5134C49.1487 23.4255 49.1097 23.346 49.1056 23.3378L50.8944 22.4434C50.8206 22.2957 50.5136 21.7344 49.8281 21.7344V23.7344ZM49.1679 23.4453C49.254 23.5744 49.4114 23.788 49.6574 23.9356L50.6864 22.2206C50.7683 22.2698 50.8142 22.3181 50.827 22.3321C50.8422 22.3487 50.8435 22.3531 50.8321 22.3359L49.1679 23.4453ZM49.3996 22.4428C48.2966 23.7835 47.0244 24.6829 45.581 25.1794L46.2315 27.0706C48.0589 26.4421 49.6304 25.3103 50.9441 23.7134L49.3996 22.4428ZM45.5743 25.1817C45.1364 25.3358 44.616 25.4219 44 25.4219V27.4219C44.8007 27.4219 45.5511 27.3101 46.2382 27.0683L45.5743 25.1817ZM44 25.4219C43.4794 25.4219 42.92 25.2815 42.3111 24.9597L41.3764 26.7278C42.2259 27.1768 43.1039 27.4219 44 27.4219V25.4219ZM42.3208 24.9649C41.7042 24.6302 41.1802 24.1973 40.7421 23.6629L39.1954 24.9308C39.799 25.6673 40.525 26.2657 41.3667 26.7226L42.3208 24.9649ZM40.7365 23.6561C39.8036 22.5384 39.3125 21.1292 39.3125 19.3594H37.3125C37.3125 21.527 37.9256 23.4096 39.201 24.9377L40.7365 23.6561ZM39.3125 19.3594C39.3125 17.5983 39.8404 16.0033 40.9143 14.5465L39.3044 13.3597C37.9825 15.1529 37.3125 17.1621 37.3125 19.3594H39.3125ZM40.9118 14.5498C41.923 13.19 43.2757 12.5156 45.0781 12.5156V10.5156C42.6723 10.5156 40.7124 11.4663 39.3069 13.3564L40.9118 14.5498ZM45.0781 12.5156C46.2285 12.5156 47.1726 13.0049 47.965 14.1245L49.5975 12.9692C48.4733 11.3806 46.9486 10.5156 45.0781 10.5156V12.5156ZM47.9671 14.1275C48.8729 15.3976 49.2188 16.374 49.2188 17.0938H51.2188C51.2188 15.7718 50.6063 14.3836 49.5954 12.9662L47.9671 14.1275ZM49.2188 17.0938C49.2188 17.1677 49.214 17.2097 49.2112 17.227C49.208 17.2471 49.2101 17.2162 49.2382 17.1588C49.2678 17.0981 49.336 16.9894 49.4704 16.8977C49.6123 16.8009 49.7654 16.7656 49.8906 16.7656V18.7656C50.1252 18.7656 50.374 18.7024 50.5979 18.5496C50.8144 18.4018 50.9509 18.2092 51.0353 18.0365C51.1906 17.7185 51.2188 17.367 51.2188 17.0938H49.2188ZM49.8906 16.7656H40.8281V18.7656H49.8906V16.7656ZM40 16.2656C40 16.5056 40.0559 16.8715 40.3444 17.176C40.6425 17.4907 41.0191 17.5625 41.2812 17.5625V15.5625C41.3559 15.5625 41.5919 15.5848 41.7963 15.8005C41.991 16.0061 42 16.2235 42 16.2656H40ZM41.2812 17.5625H47.1719V15.5625H41.2812V17.5625ZM47.1719 17.5625C47.5121 17.5625 47.9335 17.4527 48.2428 17.084C48.5237 16.749 48.5781 16.355 48.5781 16.0781H46.5781C46.5781 16.1241 46.5648 15.9723 46.7104 15.7988C46.8842 15.5915 47.1025 15.5625 47.1719 15.5625V17.5625ZM48.5781 16.0781C48.5781 15.0099 48.0932 14.0206 47.3182 13.1263L45.8068 14.4362C46.3859 15.1044 46.5781 15.6463 46.5781 16.0781H48.5781ZM47.3274 13.1371C46.53 12.1902 45.5375 11.5938 44.3594 11.5938V13.5938C44.7854 13.5938 45.2616 13.7889 45.7976 14.4254L47.3274 13.1371ZM44.3594 11.5938C43.2347 11.5938 42.2687 12.1172 41.4798 12.9825L42.9577 14.33C43.4604 13.7786 43.9215 13.5938 44.3594 13.5938V11.5938ZM41.4744 12.9885C40.7223 13.8269 40.2314 14.7974 40.0186 15.8863L41.9814 16.2699C42.1228 15.5464 42.4444 14.9023 42.9631 14.324L41.4744 12.9885ZM40 16.0781V16.2656H42V16.0781H40ZM57.3438 14.2344L58.0509 14.9415L58.1011 14.8912L58.1437 14.8344L57.3438 14.2344ZM58 13.5L58.7407 14.1718L58.7445 14.1677L58 13.5ZM65.0625 12.5938L65.7655 11.8826L65.7599 11.877L65.7542 11.8716L65.0625 12.5938ZM68.1094 25.4062L67.9628 26.3955L67.9728 26.3969L67.9827 26.3982L68.1094 25.4062ZM68.6875 26V27H68.7865L68.8836 26.9806L68.6875 26ZM61.7188 26L61.5226 26.9806L61.6197 27H61.7188V26ZM62.2969 25.4062L62.4235 26.3982L62.4335 26.3969L62.4434 26.3955L62.2969 25.4062ZM63.6562 14.2812L62.7459 14.6951L62.7497 14.7036L62.7538 14.712L63.6562 14.2812ZM58.4531 13.9531L59.0531 14.7531L59.0589 14.7488L58.4531 13.9531ZM58.7656 25.4062L58.6191 26.3955L58.629 26.3969L58.639 26.3982L58.7656 25.4062ZM59.3438 26V27H59.4428L59.5399 26.9806L59.3438 26ZM52.375 26L52.1789 26.9806L52.276 27H52.375V26ZM52.9531 25.4062L53.0798 26.3982L53.0897 26.3969L53.0997 26.3955L52.9531 25.4062ZM53.9219 3.23438L53.5915 4.17824L53.5934 4.17887L53.9219 3.23438ZM53.25 3.0625L53.0376 4.03968L53.058 4.04412L53.0787 4.04771L53.25 3.0625ZM52.6719 2.92188L52.3778 3.87765L52.3874 3.88062L52.3972 3.8834L52.6719 2.92188ZM52.4062 2.8125L51.6062 3.4125L51.692 3.52679L51.8062 3.6125L52.4062 2.8125ZM52.5938 2.26562L52.168 1.36081L52.1453 1.37148L52.1232 1.38327L52.5938 2.26562ZM56.5781 0.390625L57.0039 1.29544L57.0147 1.29038L57.0253 1.28505L56.5781 0.390625ZM56.0781 13.9062C56.0781 14.0559 56.0864 14.265 56.1455 14.4675C56.1746 14.5674 56.2385 14.7465 56.3871 14.9163C56.5613 15.1154 56.8392 15.2812 57.1875 15.2812V13.2812C57.4994 13.2812 57.7453 13.4314 57.8922 13.5993C58.0135 13.7379 58.0545 13.8701 58.0655 13.9075C58.0881 13.985 58.0781 14.0066 58.0781 13.9062H56.0781ZM57.1875 15.2812C57.3619 15.2812 57.7415 15.2508 58.0509 14.9415L56.6366 13.5273C56.762 13.4019 56.8975 13.3406 56.9939 13.3117C57.0867 13.2839 57.1575 13.2812 57.1875 13.2812V15.2812ZM58.1437 14.8344C58.1247 14.8598 58.117 14.867 58.1558 14.8226C58.1833 14.7911 58.2233 14.7459 58.2769 14.6859C58.3838 14.5662 58.5381 14.3952 58.7407 14.1718L57.2593 12.8282C57.0556 13.0527 56.8974 13.228 56.7856 13.3532C56.6949 13.4547 56.5924 13.5695 56.5438 13.6344L58.1437 14.8344ZM58.7445 14.1677C59.8204 12.968 60.7639 12.5312 61.5781 12.5312V10.5312C59.9757 10.5312 58.5338 11.407 57.2555 12.8323L58.7445 14.1677ZM61.5781 12.5312C63.0402 12.5312 63.8969 12.8621 64.3708 13.3159L65.7542 11.8716C64.7489 10.9088 63.2827 10.5312 61.5781 10.5312V12.5312ZM64.3595 13.3049C64.9829 13.9212 65.4219 15.0948 65.4219 17.1094H67.4219C67.4219 14.8948 66.9546 13.0579 65.7655 11.8826L64.3595 13.3049ZM65.4219 17.1094V23.625H67.4219V17.1094H65.4219ZM65.4219 23.625C65.4219 24.3247 65.6196 24.9978 66.1178 25.5237C66.6032 26.0361 67.2639 26.2919 67.9628 26.3955L68.2559 24.417C67.8298 24.3539 67.6468 24.2296 67.5697 24.1482C67.5054 24.0803 67.4219 23.9461 67.4219 23.625H65.4219ZM67.9827 26.3982C68.1974 26.4256 68.265 26.4539 68.2522 26.4482C68.2441 26.4446 68.1573 26.4065 68.0625 26.3037C67.9513 26.183 67.8438 25.9854 67.8438 25.7344H69.8438C69.8438 25.029 69.2742 24.7142 69.0681 24.6221C68.8105 24.5071 68.5109 24.4494 68.236 24.4143L67.9827 26.3982ZM67.8438 25.7344C67.8438 25.7199 67.8431 25.5804 67.9428 25.4109C67.9967 25.3192 68.0756 25.2272 68.1824 25.1524C68.2884 25.0782 68.3973 25.0382 68.4914 25.0194L68.8836 26.9806C69.2041 26.9165 69.4907 26.7241 69.6666 26.425C69.8184 26.167 69.8438 25.9051 69.8438 25.7344H67.8438ZM68.6875 25H61.7188V27H68.6875V25ZM61.9149 25.0194C62.0627 25.049 62.2669 25.1407 62.4153 25.3484C62.5498 25.5368 62.5625 25.7153 62.5625 25.7812H60.5625C60.5625 25.9722 60.6012 26.2497 60.7878 26.5109C60.9883 26.7916 61.2706 26.9302 61.5226 26.9806L61.9149 25.0194ZM62.5625 25.7812C62.5625 25.9716 62.4942 26.1431 62.3956 26.269C62.3091 26.3795 62.2223 26.4265 62.2009 26.4375C62.1765 26.4499 62.1781 26.4452 62.223 26.4338C62.2652 26.423 62.3304 26.4101 62.4235 26.3982L62.1702 24.4143C61.887 24.4505 61.5677 24.5152 61.2913 24.6563C61.0093 24.8003 60.5625 25.1491 60.5625 25.7812H62.5625ZM62.4434 26.3955C63.1423 26.2919 63.803 26.0361 64.2885 25.5237C64.7867 24.9978 64.9844 24.3247 64.9844 23.625H62.9844C62.9844 23.9461 62.9008 24.0803 62.8365 24.1482C62.7595 24.2296 62.5764 24.3539 62.1503 24.417L62.4434 26.3955ZM64.9844 23.625V17.2656H62.9844V23.625H64.9844ZM64.9844 17.2656C64.9844 16.4804 64.9565 15.8091 64.8964 15.2618C64.8389 14.7393 64.7434 14.2374 64.5587 13.8505L62.7538 14.712C62.7879 14.7834 62.8564 15.008 62.9083 15.4804C62.9575 15.9278 62.9844 16.5196 62.9844 17.2656H64.9844ZM64.5666 13.8674C63.9345 12.4767 62.6146 11.9062 61.0469 11.9062V13.9062C62.125 13.9062 62.5447 14.2525 62.7459 14.6951L64.5666 13.8674ZM61.0469 11.9062C59.9407 11.9062 58.8673 12.3809 57.8474 13.1575L59.0589 14.7488C59.8723 14.1295 60.5281 13.9062 61.0469 13.9062V11.9062ZM57.8531 13.1531C56.7859 13.9535 56.0781 14.9782 56.0781 16.2344H58.0781C58.0781 15.8239 58.287 15.3277 59.0531 14.7531L57.8531 13.1531ZM56.0781 16.2344V23.625H58.0781V16.2344H56.0781ZM56.0781 23.625C56.0781 24.3247 56.2758 24.9978 56.774 25.5237C57.2595 26.0361 57.9202 26.2919 58.6191 26.3955L58.9122 24.417C58.4861 24.3539 58.303 24.2296 58.226 24.1482C58.1617 24.0803 58.0781 23.9461 58.0781 23.625H56.0781ZM58.639 26.3982C58.8537 26.4256 58.9213 26.4539 58.9085 26.4482C58.9004 26.4446 58.8136 26.4065 58.7187 26.3037C58.6075 26.183 58.5 25.9854 58.5 25.7344H60.5C60.5 25.029 59.9304 24.7142 59.7243 24.6221C59.4668 24.5071 59.1672 24.4494 58.8923 24.4143L58.639 26.3982ZM58.5 25.7344C58.5 25.7199 58.4993 25.5804 58.599 25.4109C58.653 25.3192 58.7319 25.2272 58.8386 25.1524C58.9447 25.0782 59.0536 25.0382 59.1476 25.0194L59.5399 26.9806C59.8603 26.9165 60.1469 26.7241 60.3229 26.425C60.4746 26.167 60.5 25.9051 60.5 25.7344H58.5ZM59.3438 25H52.375V27H59.3438V25ZM52.5711 25.0194C52.719 25.049 52.9231 25.1407 53.0715 25.3484C53.2061 25.5368 53.2188 25.7153 53.2188 25.7812H51.2188C51.2188 25.9722 51.2575 26.2497 51.4441 26.5109C51.6446 26.7916 51.9268 26.9302 52.1789 26.9806L52.5711 25.0194ZM53.2188 25.7812C53.2188 25.9716 53.1505 26.1431 53.0519 26.269C52.9653 26.3795 52.8786 26.4265 52.8571 26.4375C52.8328 26.4499 52.8343 26.4452 52.8792 26.4338C52.9215 26.423 52.9866 26.4101 53.0798 26.3982L52.8265 24.4143C52.5433 24.4505 52.2239 24.5152 51.9476 24.6563C51.6656 24.8003 51.2188 25.1491 51.2188 25.7812H53.2188ZM53.0997 26.3955C53.7986 26.2919 54.4593 26.0361 54.9447 25.5237C55.4429 24.9978 55.6406 24.3247 55.6406 23.625H53.6406C53.6406 23.9461 53.5571 24.0803 53.4928 24.1482C53.4157 24.2296 53.2327 24.3539 52.8066 24.417L53.0997 26.3955ZM55.6406 23.625V4.14062H53.6406V23.625H55.6406ZM55.6406 4.14062C55.6406 3.72827 55.5231 3.31591 55.2444 2.96454C54.9749 2.62467 54.6138 2.41627 54.2504 2.28988L53.5934 4.17887C53.65 4.19857 53.6792 4.2153 53.6901 4.22238C53.6998 4.22872 53.6916 4.22513 53.6774 4.20733C53.6707 4.19878 53.6639 4.18861 53.6578 4.17722C53.6517 4.16584 53.6473 4.15514 53.6444 4.14607C53.6383 4.12735 53.6406 4.12293 53.6406 4.14062H55.6406ZM54.2522 2.29052C53.9872 2.19776 53.7096 2.12742 53.4213 2.07729L53.0787 4.04771C53.2696 4.08092 53.4399 4.12516 53.5915 4.17823L54.2522 2.29052ZM53.4624 2.08532C53.2327 2.03539 53.0633 1.99369 52.9466 1.96035L52.3972 3.8834C52.5721 3.9334 52.7881 3.98544 53.0376 4.03968L53.4624 2.08532ZM52.966 1.9661C52.9417 1.95865 52.9228 1.9524 52.9085 1.9474C52.8939 1.94232 52.8864 1.93933 52.8847 1.9386C52.8822 1.93759 52.8911 1.9411 52.9076 1.9497C52.9163 1.95419 52.929 1.96111 52.9447 1.97067C52.9601 1.98007 52.9814 1.99387 53.0063 2.0125L51.8062 3.6125C52.007 3.76308 52.26 3.84143 52.3778 3.87765L52.966 1.9661ZM53.2063 2.2125C53.3151 2.35759 53.3443 2.48944 53.3517 2.52654C53.361 2.57333 53.3594 2.59555 53.3594 2.57812H51.3594C51.3594 2.67529 51.3655 2.79386 51.3905 2.91877C51.4136 3.034 51.4662 3.22575 51.6062 3.4125L53.2063 2.2125ZM53.3594 2.57812C53.3594 2.74146 53.3029 2.89296 53.218 3.00625C53.1436 3.10545 53.0714 3.1442 53.0643 3.14798L52.1232 1.38327C51.7944 1.55863 51.3594 1.93757 51.3594 2.57812H53.3594ZM53.0195 3.17044L57.0039 1.29544L56.1523 -0.514194L52.168 1.36081L53.0195 3.17044ZM57.0253 1.28505C57.0495 1.27299 57.0682 1.26401 57.0821 1.25757C57.0966 1.2509 57.1026 1.24849 57.1019 1.24879C57.1012 1.24904 57.0972 1.25063 57.0904 1.25305C57.0838 1.25537 57.0717 1.2595 57.055 1.26426C57.0391 1.26879 57.0123 1.27587 56.9775 1.28221C56.9451 1.28809 56.8869 1.29688 56.8125 1.29688V-0.703125C56.6649 -0.703125 56.5482 -0.670984 56.5056 -0.65879C56.4476 -0.642245 56.3968 -0.623255 56.3591 -0.608164C56.2831 -0.577761 56.2043 -0.540517 56.1309 -0.503802L57.0253 1.28505ZM56.8125 1.29688C56.7395 1.29688 56.6275 1.28378 56.5029 1.22513C56.3731 1.16404 56.2687 1.07178 56.1957 0.968642C56.066 0.785581 56.0781 0.634528 56.0781 0.671875H58.0781C58.0781 0.459222 58.046 0.120669 57.8277 -0.187392C57.5647 -0.558719 57.1672 -0.703125 56.8125 -0.703125V1.29688ZM56.0781 0.671875V13.9062H58.0781V0.671875H56.0781ZM80.4375 24.0781L79.8828 24.9102L79.9026 24.9234L79.923 24.9356L80.4375 24.0781ZM82.1562 24.0625L82.7623 24.858L82.7677 24.8538L82.1562 24.0625ZM82.4375 24.7031L83.0289 25.5096L83.0375 25.5031L82.4375 24.7031ZM77.6406 24.3438L76.6828 24.6311L76.683 24.6318L77.6406 24.3438ZM77.5625 24.2031L77.1153 23.3087L77.0346 23.349L76.9625 23.4031L77.5625 24.2031ZM75.125 25.9531L75.6223 26.8207L75.6289 26.8169L75.6355 26.813L75.125 25.9531ZM72.5469 26.1875L72.1833 27.1191L72.1871 27.1206L72.5469 26.1875ZM70.6875 24.5312L69.7838 24.9593L69.7883 24.9689L69.7931 24.9785L70.6875 24.5312ZM75.1406 19.6562L75.3922 20.6241L75.3983 20.6225L75.1406 19.6562ZM77.5781 18.5156L76.659 18.1217L76.634 18.18L76.6166 18.2409L77.5781 18.5156ZM76.25 12.8281L76.7133 11.9419L76.7094 11.9399L76.25 12.8281ZM73.875 13.0938L73.2689 12.2983L73.2597 12.3054L73.875 13.0938ZM73.2344 14.5156H72.2344V14.5795L72.2425 14.6428L73.2344 14.5156ZM73.3125 15.125L74.2069 15.5722L74.3431 15.2999L74.3044 14.9978L73.3125 15.125ZM71 16.2188V17.2188H71.099L71.1961 17.1993L71 16.2188ZM71.1094 14.2812L70.2112 13.8417L71.1094 14.2812ZM72.125 12.9375L71.4445 12.2047L72.125 12.9375ZM78.8281 12.6094L78.1649 13.3578L78.1703 13.3625L78.8281 12.6094ZM73.4375 24.2812L72.7401 24.998L72.7503 25.0077L73.4375 24.2812ZM76.5625 24.2031L77.0696 25.0651L77.0788 25.0595L76.5625 24.2031ZM77.4375 19.5625L77.8595 20.4691L77.8722 20.4632L77.8847 20.4569L77.4375 19.5625ZM73.8125 21.25L73.3905 20.3434L73.3042 20.3836L73.227 20.4393L73.8125 21.25ZM73.0469 21.9375L72.2362 21.352L72.2252 21.3672L72.2148 21.3828L73.0469 21.9375ZM79.0625 23.4219C79.0625 24.0679 79.3904 24.5819 79.8828 24.9102L80.9922 23.2461C80.9717 23.2324 80.9965 23.2439 81.0245 23.2929C81.038 23.3165 81.0483 23.3422 81.0549 23.3679C81.0613 23.3931 81.0625 23.4121 81.0625 23.4219H79.0625ZM79.923 24.9356C80.3538 25.1941 80.8318 25.3125 81.3281 25.3125V23.3125C81.1578 23.3125 81.0421 23.2747 80.952 23.2206L79.923 24.9356ZM81.3281 25.3125C81.8327 25.3125 82.3349 25.1836 82.7623 24.8579L81.5502 23.2671C81.5401 23.2748 81.4902 23.3125 81.3281 23.3125V25.3125ZM82.7677 24.8538C82.8138 24.8181 82.8517 24.7905 82.8819 24.7697C82.9128 24.7484 82.931 24.7374 82.9383 24.7333C82.9478 24.728 82.9318 24.7381 82.8955 24.7515C82.8763 24.7586 82.8449 24.769 82.8033 24.7781C82.7624 24.787 82.7012 24.7969 82.625 24.7969V22.7969C82.3022 22.7969 82.0445 22.941 81.9523 22.9933C81.8157 23.0707 81.6772 23.1689 81.5448 23.2712L82.7677 24.8538ZM82.625 24.7969C82.3909 24.7969 82.1692 24.707 82.004 24.5555C81.8606 24.4241 81.801 24.2853 81.779 24.2246C81.7389 24.1144 81.75 24.0587 81.75 24.1406H83.75C83.75 23.9933 83.7403 23.7658 83.6585 23.5411C83.6156 23.4231 83.53 23.2413 83.3554 23.0812C83.1589 22.9011 82.9008 22.7969 82.625 22.7969V24.7969ZM81.75 24.1406C81.75 24.0836 81.7656 24.0175 81.7977 23.9597C81.8269 23.9071 81.8528 23.8917 81.8375 23.9031L83.0375 25.5031C83.4436 25.1986 83.75 24.7361 83.75 24.1406H81.75ZM81.8461 23.8967C81.0823 24.4569 80.4684 24.8571 79.9962 25.113C79.7605 25.2407 79.5765 25.3234 79.439 25.3724C79.2932 25.4243 79.2446 25.4219 79.2656 25.4219V27.4219C79.813 27.4219 80.4082 27.1645 80.9491 26.8714C81.5342 26.5543 82.2302 26.0952 83.0289 25.5095L81.8461 23.8967ZM79.2656 25.4219C79.3324 25.4219 79.2938 25.4739 79.1471 25.2864C78.9864 25.0808 78.7909 24.6963 78.5983 24.0557L76.683 24.6318C76.907 25.3767 77.1907 26.0312 77.5716 26.5183C77.9666 27.0235 78.5322 27.4219 79.2656 27.4219V25.4219ZM78.5985 24.0564C78.5787 23.9906 78.5396 23.8669 78.4718 23.7448C78.4441 23.695 78.359 23.5458 78.193 23.4167C77.9833 23.2536 77.5655 23.0836 77.1153 23.3087L78.0097 25.0976C77.8278 25.1885 77.6134 25.2249 77.3968 25.1867C77.1959 25.1512 77.0511 25.0622 76.9652 24.9954C76.8109 24.8754 76.7382 24.7425 76.7235 24.7161C76.6817 24.6409 76.6713 24.5927 76.6828 24.6311L78.5985 24.0564ZM76.9625 23.4031C75.6535 24.3849 74.8906 24.9293 74.6145 25.0933L75.6355 26.813C76.026 26.5811 76.8882 25.9589 78.1625 25.0031L76.9625 23.4031ZM74.6277 25.0855C74.016 25.4361 73.4707 25.4719 72.9066 25.2544L72.1871 27.1206C73.3523 27.5698 74.5256 27.4493 75.6223 26.8207L74.6277 25.0855ZM72.9104 25.2559C72.271 25.0064 71.849 24.6182 71.5819 24.084L69.7931 24.9785C70.2968 25.986 71.1144 26.7019 72.1833 27.1191L72.9104 25.2559ZM71.5912 24.1032C71.4686 23.8442 71.4062 23.5689 71.4062 23.2656H69.4062C69.4062 23.8581 69.5314 24.4266 69.7838 24.9593L71.5912 24.1032ZM71.4062 23.2656C71.4062 22.6653 71.6103 22.2586 72.0123 21.9395L70.769 20.373C69.8584 21.0956 69.4062 22.0951 69.4062 23.2656H71.4062ZM72.0123 21.9395C72.4889 21.5613 73.5542 21.1018 75.3922 20.6241L74.8891 18.6884C73.0396 19.1691 71.6049 19.7095 70.769 20.373L72.0123 21.9395ZM75.3983 20.6225C76.085 20.4394 76.7153 20.2 77.2821 19.8985L76.3429 18.1328C75.9306 18.3521 75.4462 18.5398 74.883 18.69L75.3983 20.6225ZM77.2821 19.8985C77.5357 19.7636 77.7528 19.6404 77.9179 19.5326C77.9982 19.4801 78.0901 19.4159 78.174 19.3431C78.2159 19.3068 78.2736 19.253 78.331 19.1834C78.3789 19.1253 78.4826 18.9902 78.5396 18.7903L76.6166 18.2409C76.6446 18.143 76.6827 18.0686 76.7111 18.0208C76.7401 17.9717 76.7681 17.935 76.7877 17.9113C76.8252 17.8658 76.8557 17.839 76.8631 17.8327C76.878 17.8197 76.8716 17.8272 76.8243 17.858C76.7342 17.9169 76.5789 18.0072 76.3429 18.1328L77.2821 19.8985ZM78.4973 18.9095C78.568 18.7444 78.625 18.5416 78.625 18.3125H76.625C76.625 18.2084 76.6507 18.141 76.659 18.1217L78.4973 18.9095ZM78.625 18.3125V15.3125H76.625V18.3125H78.625ZM78.625 15.3125C78.625 14.5953 78.4851 13.9186 78.1562 13.3244C77.8234 12.723 77.3284 12.2635 76.7133 11.9419L75.7867 13.7144C76.0882 13.8719 76.2808 14.0661 76.4063 14.2928C76.5358 14.5267 76.625 14.8527 76.625 15.3125H78.625ZM76.7094 11.9399C76.2336 11.6938 75.7032 11.5938 75.1562 11.5938V13.5938C75.4634 13.5938 75.6622 13.6499 75.7906 13.7163L76.7094 11.9399ZM75.1562 11.5938C74.4597 11.5938 73.825 11.8747 73.269 12.2983L74.481 13.8892C74.8 13.6461 75.0195 13.5938 75.1562 13.5938V11.5938ZM73.2597 12.3054C72.555 12.8554 72.2344 13.6401 72.2344 14.5156H74.2344C74.2344 14.162 74.3408 13.9987 74.4903 13.8821L73.2597 12.3054ZM72.2425 14.6428L72.3206 15.2522L74.3044 14.9978L74.2263 14.3885L72.2425 14.6428ZM72.4181 14.6778C72.471 14.572 72.5305 14.5066 72.5546 14.4816C72.5693 14.4664 72.5811 14.4557 72.5882 14.4495C72.5955 14.4432 72.6001 14.4396 72.601 14.4389C72.6022 14.438 72.5951 14.4434 72.5764 14.4553C72.5581 14.4668 72.5327 14.482 72.4987 14.5008C72.3565 14.5798 72.1282 14.6889 71.797 14.8294L72.578 16.6706C72.9343 16.5194 73.2372 16.3785 73.47 16.2492C73.5853 16.1851 73.7053 16.112 73.8131 16.0298C73.8937 15.9684 74.0843 15.8174 74.2069 15.5722L72.4181 14.6778ZM71.797 14.8294C71.4561 14.974 71.1942 15.0822 71.0078 15.1558C70.9142 15.1927 70.8457 15.2186 70.799 15.2351C70.7345 15.2579 70.7516 15.2486 70.8039 15.2382L71.1961 17.1993C71.3559 17.1674 71.5757 17.0818 71.7422 17.0161C71.9516 16.9334 72.2314 16.8177 72.578 16.6706L71.797 14.8294ZM71 15.2188C71.1726 15.2188 71.3575 15.2758 71.5113 15.3976C71.65 15.5074 71.7114 15.6282 71.7341 15.6823C71.7711 15.77 71.75 15.783 71.75 15.625H69.75C69.75 15.8628 69.7706 16.1727 69.8909 16.4584C69.9553 16.6114 70.0687 16.8064 70.2699 16.9657C70.4863 17.137 70.744 17.2188 71 17.2188V15.2188ZM71.75 15.625C71.75 15.414 71.8132 15.1181 72.0076 14.7208L70.2112 13.8417C69.9264 14.4236 69.75 15.0235 69.75 15.625H71.75ZM72.0076 14.7208C72.1883 14.3516 72.4493 14.001 72.8055 13.6703L71.4445 12.2047C70.9257 12.6865 70.5096 13.2318 70.2112 13.8417L72.0076 14.7208ZM72.8055 13.6703C73.6538 12.8826 74.5814 12.5156 75.625 12.5156V10.5156C74.0436 10.5156 72.6379 11.0966 71.4445 12.2047L72.8055 13.6703ZM75.625 12.5156C76.743 12.5156 77.5591 12.821 78.1649 13.3578L79.4913 11.8609C78.4513 10.9394 77.132 10.5156 75.625 10.5156V12.5156ZM78.1703 13.3625C78.7985 13.9112 79.0625 14.505 79.0625 15.1875H81.0625C81.0625 13.87 80.5036 12.7451 79.486 11.8562L78.1703 13.3625ZM79.0625 15.1875V23.4219H81.0625V15.1875H79.0625ZM71.8594 22.9688C71.8594 23.7605 72.1775 24.4505 72.7401 24.998L74.1349 23.5645C73.9267 23.362 73.8594 23.177 73.8594 22.9688H71.8594ZM72.7503 25.0077C73.3044 25.5319 73.9823 25.8281 74.75 25.8281V23.8281C74.5385 23.8281 74.3414 23.7598 74.1247 23.5548L72.7503 25.0077ZM74.75 25.8281C75.5086 25.8281 76.2959 25.5201 77.0695 25.0651L76.0555 23.3412C75.4125 23.7194 74.9914 23.8281 74.75 23.8281V25.8281ZM77.0788 25.0595C77.838 24.6018 78.625 23.9052 78.625 22.8906H76.625C76.625 22.8319 76.6529 22.838 76.5821 22.9255C76.5039 23.0222 76.3432 23.1677 76.0462 23.3467L77.0788 25.0595ZM78.625 22.8906V19.7188H76.625V22.8906H78.625ZM78.625 19.7188C78.625 19.617 78.6183 19.4014 78.5158 19.176C78.459 19.0511 78.3557 18.8856 78.1724 18.7512C77.978 18.6086 77.7556 18.5469 77.5469 18.5469V20.5469C77.3641 20.5469 77.1646 20.4923 76.9897 20.364C76.8259 20.2439 76.7389 20.0999 76.6951 20.0036C76.652 19.9089 76.6371 19.8311 76.6314 19.7934C76.6252 19.7525 76.625 19.7255 76.625 19.7188H78.625ZM77.5469 18.5469C77.486 18.5469 77.239 18.5437 76.9903 18.6681L77.8847 20.4569C77.8176 20.4905 77.7591 20.5095 77.7192 20.5204C77.6782 20.5316 77.6445 20.5375 77.6219 20.5407C77.5785 20.5469 77.5505 20.5469 77.5469 20.5469V18.5469ZM77.0155 18.6559L73.3905 20.3434L74.2345 22.1566L77.8595 20.4691L77.0155 18.6559ZM73.227 20.4393C72.834 20.7232 72.4695 21.0289 72.2362 21.352L73.8576 22.523C73.895 22.4711 74.041 22.3185 74.398 22.0607L73.227 20.4393ZM72.2148 21.3828C72.0465 21.6352 71.966 21.9171 71.9224 22.1571C71.8769 22.4071 71.8594 22.6821 71.8594 22.9688H73.8594C73.8594 22.7554 73.8731 22.6085 73.8901 22.5148C73.909 22.411 73.9222 22.4273 73.8789 22.4922L72.2148 21.3828Z" fill="black"/>
</g>
<defs>
<filter id="filter0_d_1_2" x="0.40625" y="0.296875" width="86.3438" height="34.3906" filterUnits="userSpaceOnUse" color-interpolation-filters="sRGB">
<feFlood flood-opacity="0" result="BackgroundImageFix"/>
<feColorMatrix in="SourceAlpha" type="matrix" values="0 0 0 0 0 0 0 0 0 0 0 0 0 0 0 0 0 0 127 0" result="hardAlpha"/>
<feOffset dy="4"/>
<feGaussianBlur stdDeviation="2"/>
<feComposite in2="hardAlpha" operator="out"/>
<feColorMatrix type="matrix" values="0 0 0 0 0 0 0 0 0 0 0 0 0 0 0 0 0 0 0.25 0"/>
<feBlend mode="normal" in2="BackgroundImageFix" result="effect1_dropShadow_1_2"/>
<feBlend mode="normal" in="SourceGraphic" in2="effect1_dropShadow_1_2" result="shape"/>
</filter>
</defs>
</svg>
