<svg width="64" height="33" viewBox="0 0 64 33" fill="none" xmlns="http://www.w3.org/2000/svg">
<path d="M0.825639 12V1.09091H8.43217V3.23224H3.46236V5.46946H8.04332V7.61612H3.46236V9.85866H8.43217V12H0.825639ZM14.1158 12H10.0835V1.09091H14.1104C15.2219 1.09091 16.179 1.3093 16.9815 1.74609C17.7876 2.17933 18.4091 2.80433 18.8459 3.62109C19.2827 4.4343 19.5011 5.40732 19.5011 6.54013C19.5011 7.67649 19.2827 8.65305 18.8459 9.46982C18.4126 10.2866 17.793 10.9134 16.9869 11.3501C16.1808 11.7834 15.2237 12 14.1158 12ZM12.7202 9.75213H14.0146C14.6254 9.75213 15.142 9.64915 15.5646 9.44318C15.9908 9.23366 16.3121 8.89453 16.5288 8.42578C16.7489 7.95348 16.859 7.32493 16.859 6.54013C16.859 5.75533 16.7489 5.13033 16.5288 4.66513C16.3086 4.19638 15.9837 3.85902 15.554 3.65305C15.1278 3.44354 14.6023 3.33878 13.9773 3.33878H12.7202V9.75213ZM19.7794 1.09091H22.7251L25.0315 5.65589H25.1274L27.4339 1.09091H30.3795L26.3898 8.35653V12H23.7691V8.35653L19.7794 1.09091ZM41.0636 6.54545C41.0636 7.74574 40.8327 8.76314 40.3711 9.59766C39.9094 10.4322 39.2844 11.0661 38.4961 11.4993C37.7113 11.9325 36.8306 12.1491 35.854 12.1491C34.8739 12.1491 33.9915 11.9308 33.2067 11.494C32.4219 11.0572 31.7987 10.4233 31.337 9.59233C30.8789 8.75781 30.6499 7.74219 30.6499 6.54545C30.6499 5.34517 30.8789 4.32777 31.337 3.49325C31.7987 2.65874 32.4219 2.02486 33.2067 1.59162C33.9915 1.15838 34.8739 0.941761 35.854 0.941761C36.8306 0.941761 37.7113 1.15838 38.4961 1.59162C39.2844 2.02486 39.9094 2.65874 40.3711 3.49325C40.8327 4.32777 41.0636 5.34517 41.0636 6.54545ZM38.3683 6.54545C38.3683 5.83523 38.267 5.23509 38.0646 4.74503C37.8658 4.25497 37.5781 3.88388 37.2017 3.63175C36.8288 3.37962 36.3796 3.25355 35.854 3.25355C35.332 3.25355 34.8828 3.37962 34.5064 3.63175C34.13 3.88388 33.8406 4.25497 33.6381 4.74503C33.4393 5.23509 33.3398 5.83523 33.3398 6.54545C33.3398 7.25568 33.4393 7.85582 33.6381 8.34588C33.8406 8.83594 34.13 9.20703 34.5064 9.45916C34.8828 9.71129 35.332 9.83736 35.854 9.83736C36.3796 9.83736 36.8288 9.71129 37.2017 9.45916C37.5781 9.20703 37.8658 8.83594 38.0646 8.34588C38.267 7.85582 38.3683 7.25568 38.3683 6.54545ZM46.6353 12H42.603V1.09091H46.63C47.7415 1.09091 48.6985 1.3093 49.5011 1.74609C50.3072 2.17933 50.9286 2.80433 51.3654 3.62109C51.8022 4.4343 52.0206 5.40732 52.0206 6.54013C52.0206 7.67649 51.8022 8.65305 51.3654 9.46982C50.9322 10.2866 50.3125 10.9134 49.5064 11.3501C48.7003 11.7834 47.7433 12 46.6353 12ZM45.2397 9.75213H46.5341C47.1449 9.75213 47.6616 9.64915 48.0842 9.44318C48.5103 9.23366 48.8317 8.89453 49.0483 8.42578C49.2685 7.95348 49.3786 7.32493 49.3786 6.54013C49.3786 5.75533 49.2685 5.13033 49.0483 4.66513C48.8281 4.19638 48.5032 3.85902 48.0735 3.65305C47.6474 3.44354 47.1218 3.33878 46.4968 3.33878H45.2397V9.75213ZM55.2752 12H52.4414L56.1222 1.09091H59.6325L63.3132 12H60.4794L57.9173 3.83949H57.832L55.2752 12ZM54.897 7.70668H60.8203V9.70952H54.897V7.70668Z" fill="#0D08FC"/>
<path d="M6.84091 26.0739L5.72727 26.3722C5.6875 26.1932 5.6179 26.0208 5.51847 25.8551C5.42235 25.6861 5.2732 25.5485 5.07102 25.4425C4.87216 25.3331 4.60038 25.2784 4.25568 25.2784C3.78835 25.2784 3.38234 25.3861 3.03764 25.6016C2.69295 25.8137 2.49574 26.0838 2.44602 26.4119C2.39631 26.7003 2.46259 26.9306 2.64489 27.103C2.82718 27.2753 3.1321 27.4162 3.55966 27.5256L4.65341 27.804C5.30966 27.973 5.77699 28.2266 6.0554 28.5646C6.33712 28.8994 6.43324 29.3352 6.34375 29.8722C6.27083 30.3097 6.08026 30.7008 5.77202 31.0455C5.46378 31.3902 5.06937 31.6619 4.58878 31.8608C4.10819 32.0597 3.57292 32.1591 2.98295 32.1591C2.19744 32.1591 1.57765 31.9901 1.12358 31.652C0.669508 31.3106 0.427557 30.8168 0.397727 30.1705L1.57102 29.892C1.60085 30.2997 1.74669 30.608 2.00852 30.8168C2.27367 31.0223 2.64489 31.125 3.12216 31.125C3.66903 31.125 4.12476 31.009 4.48935 30.777C4.85393 30.5417 5.06108 30.2599 5.1108 29.9318C5.16051 29.6634 5.10748 29.4396 4.9517 29.2607C4.79924 29.0817 4.53409 28.9474 4.15625 28.858L2.94318 28.5597C2.26705 28.3906 1.79309 28.1321 1.52131 27.7841C1.25284 27.4361 1.16335 26.9986 1.25284 26.4716C1.32576 26.0407 1.51136 25.6596 1.80966 25.3281C2.11127 24.9967 2.48911 24.7365 2.94318 24.5476C3.40057 24.3587 3.89773 24.2642 4.43466 24.2642C5.19034 24.2642 5.75545 24.4299 6.12997 24.7614C6.5045 25.0895 6.74148 25.527 6.84091 26.0739ZM12.3457 24.3636L12.1866 25.358H8.22923L8.38832 24.3636H12.3457ZM9.84002 22.5341H11.0133L9.80025 29.8125C9.74722 30.1439 9.7555 30.3925 9.82511 30.5582C9.89802 30.7206 10.0074 30.83 10.1532 30.8864C10.3024 30.9394 10.4631 30.9659 10.6355 30.9659C10.7647 30.9659 10.8708 30.9593 10.9537 30.946C11.0365 30.9295 11.1028 30.9162 11.1525 30.9062L11.2321 31.9602C11.1426 31.9901 11.0216 32.0199 10.8691 32.0497C10.72 32.0829 10.536 32.0994 10.3173 32.0994C9.98585 32.0994 9.6743 32.0282 9.38264 31.8857C9.09097 31.7431 8.86725 31.526 8.71147 31.2344C8.55569 30.9427 8.51426 30.5748 8.58718 30.1307L9.84002 22.5341ZM15.9078 32.1591C15.2052 32.1591 14.6169 31.9917 14.1429 31.657C13.669 31.3222 13.3342 30.8532 13.1387 30.25C12.9464 29.6468 12.915 28.9441 13.0442 28.142C13.1702 27.3598 13.4204 26.6787 13.7949 26.0987C14.1728 25.5154 14.6417 25.0646 15.2019 24.7464C15.7653 24.425 16.3851 24.2642 17.0613 24.2642C17.7639 24.2642 18.3506 24.4332 18.8212 24.7713C19.2952 25.1061 19.6299 25.5767 19.8255 26.1832C20.021 26.7865 20.0542 27.4924 19.9249 28.3011C19.7989 29.0767 19.5454 29.7545 19.1642 30.3345C18.7864 30.9112 18.3174 31.3603 17.7573 31.6818C17.2005 32 16.584 32.1591 15.9078 32.1591ZM15.9277 31.1051C16.4647 31.1051 16.9303 30.9676 17.3248 30.6925C17.7225 30.4174 18.044 30.0545 18.2892 29.6037C18.5378 29.1529 18.7052 28.6657 18.7914 28.142C18.8709 27.6449 18.8676 27.1825 18.7814 26.755C18.6953 26.3241 18.5113 25.9777 18.2296 25.7159C17.9479 25.4508 17.5518 25.3182 17.0414 25.3182C16.5044 25.3182 16.0355 25.4574 15.6344 25.7358C15.2367 26.0142 14.9152 26.3804 14.6699 26.8345C14.4247 27.2886 14.2606 27.7775 14.1777 28.3011C14.0982 28.7983 14.0998 29.2607 14.1827 29.6882C14.2689 30.1125 14.4528 30.4555 14.7346 30.7173C15.0196 30.9759 15.4173 31.1051 15.9277 31.1051ZM21.1094 32L22.3821 24.3636H23.5156L23.3168 25.517H23.3963C23.5952 25.1392 23.8984 24.8326 24.3061 24.5973C24.7138 24.362 25.1463 24.2443 25.6037 24.2443C25.6932 24.2443 25.8009 24.246 25.9268 24.2493C26.0528 24.2493 26.1506 24.2543 26.2202 24.2642L26.0213 25.4574C25.9815 25.4474 25.892 25.4325 25.7528 25.4126C25.6136 25.3894 25.4645 25.3778 25.3054 25.3778C24.9342 25.3778 24.5911 25.4557 24.2763 25.6115C23.9614 25.764 23.6979 25.9761 23.4858 26.2479C23.2737 26.5163 23.1378 26.8229 23.0781 27.1676L22.2827 32H21.1094ZM26.3457 32L27.6184 24.3636H28.7917L27.519 32H26.3457ZM28.563 23.071C28.3343 23.071 28.1371 22.9931 27.9714 22.8374C27.809 22.6816 27.7278 22.4943 27.7278 22.2756C27.7278 22.0568 27.809 21.8696 27.9714 21.7138C28.1371 21.558 28.3343 21.4801 28.563 21.4801C28.7917 21.4801 28.9873 21.558 29.1497 21.7138C29.3154 21.8696 29.3983 22.0568 29.3983 22.2756C29.3983 22.4943 29.3154 22.6816 29.1497 22.8374C28.9873 22.9931 28.7917 23.071 28.563 23.071ZM32.8498 32.1591C32.1173 32.1591 31.5124 31.9967 31.0352 31.6719C30.5579 31.3438 30.2248 30.8864 30.0359 30.2997C29.8469 29.7098 29.8171 29.0237 29.9464 28.2415C30.0756 27.4593 30.3325 26.7699 30.717 26.1733C31.1014 25.5734 31.5804 25.1061 32.1538 24.7713C32.7272 24.4332 33.3569 24.2642 34.043 24.2642C34.4407 24.2642 34.8235 24.3305 35.1914 24.4631C35.5593 24.5956 35.8775 24.8111 36.146 25.1094C36.4144 25.4044 36.6017 25.7955 36.7077 26.2827C36.8138 26.7699 36.8072 27.3698 36.6879 28.0824L36.6083 28.5795H30.7219L30.881 27.5653H35.5742C35.6504 27.1345 35.6306 26.75 35.5146 26.4119C35.4019 26.0739 35.2047 25.8071 34.9229 25.6115C34.6445 25.416 34.2915 25.3182 33.864 25.3182C33.4232 25.3182 33.0122 25.4375 32.631 25.6761C32.2499 25.9115 31.9317 26.2098 31.6765 26.571C31.4213 26.929 31.2622 27.2936 31.1992 27.6648L31.06 28.5398C30.9606 29.1728 30.9755 29.6766 31.1048 30.0511C31.2373 30.4257 31.4677 30.6958 31.7958 30.8615C32.1239 31.0239 32.5349 31.1051 33.0288 31.1051C33.3436 31.1051 33.6336 31.062 33.8988 30.9759C34.1639 30.8864 34.4009 30.7538 34.6097 30.5781C34.8185 30.3991 34.9942 30.1771 35.1367 29.9119L36.2106 30.2301C36.0283 30.6146 35.7714 30.9527 35.44 31.2443C35.1119 31.5327 34.7274 31.758 34.2866 31.9205C33.8491 32.0795 33.3701 32.1591 32.8498 32.1591ZM44.2472 26.0739L43.1335 26.3722C43.0938 26.1932 43.0241 26.0208 42.9247 25.8551C42.8286 25.6861 42.6795 25.5485 42.4773 25.4425C42.2784 25.3331 42.0066 25.2784 41.6619 25.2784C41.1946 25.2784 40.7886 25.3861 40.4439 25.6016C40.0992 25.8137 39.902 26.0838 39.8523 26.4119C39.8026 26.7003 39.8688 26.9306 40.0511 27.103C40.2334 27.2753 40.5384 27.4162 40.9659 27.5256L42.0597 27.804C42.7159 27.973 43.1832 28.2266 43.4616 28.5646C43.7434 28.8994 43.8395 29.3352 43.75 29.8722C43.6771 30.3097 43.4865 30.7008 43.1783 31.0455C42.87 31.3902 42.4756 31.6619 41.995 31.8608C41.5144 32.0597 40.9792 32.1591 40.3892 32.1591C39.6037 32.1591 38.9839 31.9901 38.5298 31.652C38.0758 31.3106 37.8338 30.8168 37.804 30.1705L38.9773 29.892C39.0071 30.2997 39.1529 30.608 39.4148 30.8168C39.6799 31.0223 40.0511 31.125 40.5284 31.125C41.0753 31.125 41.531 31.009 41.8956 30.777C42.2602 30.5417 42.4673 30.2599 42.517 29.9318C42.5668 29.6634 42.5137 29.4396 42.358 29.2607C42.2055 29.0817 41.9403 28.9474 41.5625 28.858L40.3494 28.5597C39.6733 28.3906 39.1993 28.1321 38.9276 27.7841C38.6591 27.4361 38.5696 26.9986 38.6591 26.4716C38.732 26.0407 38.9176 25.6596 39.2159 25.3281C39.5175 24.9967 39.8954 24.7365 40.3494 24.5476C40.8068 24.3587 41.304 24.2642 41.8409 24.2642C42.5966 24.2642 43.1617 24.4299 43.5362 24.7614C43.9107 25.0895 44.1477 25.527 44.2472 26.0739Z" fill="black"/>
<path d="M0.825639 12H-0.174361V13H0.825639V12ZM0.825639 1.09091V0.0909088H-0.174361V1.09091H0.825639ZM8.43217 1.09091H9.43217V0.0909088H8.43217V1.09091ZM8.43217 3.23224V4.23224H9.43217V3.23224H8.43217ZM3.46236 3.23224V2.23224H2.46236V3.23224H3.46236ZM3.46236 5.46946H2.46236V6.46946H3.46236V5.46946ZM8.04332 5.46946H9.04332V4.46946H8.04332V5.46946ZM8.04332 7.61612V8.61612H9.04332V7.61612H8.04332ZM3.46236 7.61612V6.61612H2.46236V7.61612H3.46236ZM3.46236 9.85866H2.46236V10.8587H3.46236V9.85866ZM8.43217 9.85866H9.43217V8.85866H8.43217V9.85866ZM8.43217 12V13H9.43217V12H8.43217ZM1.82564 12V1.09091H-0.174361V12H1.82564ZM0.825639 2.09091H8.43217V0.0909088H0.825639V2.09091ZM7.43217 1.09091V3.23224H9.43217V1.09091H7.43217ZM8.43217 2.23224H3.46236V4.23224H8.43217V2.23224ZM2.46236 3.23224V5.46946H4.46236V3.23224H2.46236ZM3.46236 6.46946H8.04332V4.46946H3.46236V6.46946ZM7.04332 5.46946V7.61612H9.04332V5.46946H7.04332ZM8.04332 6.61612H3.46236V8.61612H8.04332V6.61612ZM2.46236 7.61612V9.85866H4.46236V7.61612H2.46236ZM3.46236 10.8587H8.43217V8.85866H3.46236V10.8587ZM7.43217 9.85866V12H9.43217V9.85866H7.43217ZM8.43217 11H0.825639V13H8.43217V11ZM10.0835 12H9.08345V13H10.0835V12ZM10.0835 1.09091V0.0909088H9.08345V1.09091H10.0835ZM16.9815 1.74609L16.5035 2.62445L16.5081 2.62694L16.9815 1.74609ZM18.8459 3.62109L17.9641 4.09268L17.9649 4.09428L18.8459 3.62109ZM18.8459 9.46982L17.9641 8.99823L17.9625 9.00122L18.8459 9.46982ZM16.9869 11.3501L17.4603 12.231L17.4633 12.2294L16.9869 11.3501ZM12.7202 9.75213H11.7202V10.7521H12.7202V9.75213ZM15.5646 9.44318L16.0028 10.3421L16.0059 10.3406L15.5646 9.44318ZM16.5288 8.42578L15.6224 8.00327L15.621 8.00629L16.5288 8.42578ZM16.5288 4.66513L15.6236 5.09027L15.6249 5.09292L16.5288 4.66513ZM15.554 3.65305L15.1127 4.5505L15.1217 4.55481L15.554 3.65305ZM12.7202 3.33878V2.33878H11.7202V3.33878H12.7202ZM14.1158 11H10.0835V13H14.1158V11ZM11.0835 12V1.09091H9.08345V12H11.0835ZM10.0835 2.09091H14.1104V0.0909088H10.0835V2.09091ZM14.1104 2.09091C15.0908 2.09091 15.8762 2.28302 16.5035 2.62443L17.4596 0.867753C16.4818 0.335585 15.3531 0.0909088 14.1104 0.0909088V2.09091ZM16.5081 2.62694C17.1385 2.96575 17.6189 3.44734 17.9641 4.09268L19.7277 3.14951C19.1992 2.16133 18.4367 1.39291 17.4549 0.865249L16.5081 2.62694ZM17.9649 4.09428C18.3077 4.73252 18.5011 5.53538 18.5011 6.54013H20.5011C20.5011 5.27925 20.2576 4.13609 19.7268 3.14791L17.9649 4.09428ZM18.5011 6.54013C18.5011 7.54884 18.3076 8.35591 17.9641 8.99823L19.7277 9.9414C20.2578 8.9502 20.5011 7.80414 20.5011 6.54013H18.5011ZM17.9625 9.00122C17.6207 9.64558 17.1419 10.1288 16.5105 10.4709L17.4633 12.2294C18.4441 11.6979 19.2046 10.9276 19.7293 9.93841L17.9625 9.00122ZM16.5135 10.4693C15.8805 10.8095 15.093 11 14.1158 11V13C15.3544 13 16.481 12.7573 17.4603 12.231L16.5135 10.4693ZM12.7202 10.7521H14.0146V8.75213H12.7202V10.7521ZM14.0146 10.7521C14.7334 10.7521 15.4092 10.6314 16.0028 10.3421L15.1265 8.54427C14.8749 8.66689 14.5173 8.75213 14.0146 8.75213V10.7521ZM16.0059 10.3406C16.6561 10.0209 17.1327 9.50263 17.4365 8.84528L15.621 8.00629C15.4915 8.28643 15.3254 8.44646 15.1234 8.54578L16.0059 10.3406ZM17.4351 8.84829C17.7402 8.19392 17.859 7.40369 17.859 6.54013H15.859C15.859 7.24617 15.7577 7.71304 15.6224 8.00327L17.4351 8.84829ZM17.859 6.54013C17.859 5.67776 17.7405 4.88791 17.4326 4.23734L15.6249 5.09292C15.7573 5.37274 15.859 5.83289 15.859 6.54013H17.859ZM17.4339 4.23999C17.1248 3.58201 16.6423 3.06578 15.9862 2.7513L15.1217 4.55481C15.325 4.65226 15.4923 4.81074 15.6236 5.09026L17.4339 4.23999ZM15.9952 2.75566C15.3955 2.46078 14.7089 2.33878 13.9773 2.33878V4.33878C14.4957 4.33878 14.8602 4.42629 15.1128 4.55045L15.9952 2.75566ZM13.9773 2.33878H12.7202V4.33878H13.9773V2.33878ZM11.7202 3.33878V9.75213H13.7202V3.33878H11.7202ZM19.7794 1.09091V0.0909088H18.0894L18.9028 1.57224L19.7794 1.09091ZM22.7251 1.09091L23.6176 0.63995L23.3402 0.0909088H22.7251V1.09091ZM25.0315 5.65589L24.139 6.10685L24.4164 6.65589H25.0315V5.65589ZM25.1274 5.65589V6.65589H25.7425L26.0199 6.10685L25.1274 5.65589ZM27.4339 1.09091V0.0909088H26.8187L26.5413 0.63995L27.4339 1.09091ZM30.3795 1.09091L31.2561 1.57224L32.0695 0.0909088H30.3795V1.09091ZM26.3898 8.35653L25.5133 7.87521L25.3898 8.10004V8.35653H26.3898ZM26.3898 12V13H27.3898V12H26.3898ZM23.7691 12H22.7691V13H23.7691V12ZM23.7691 8.35653H24.7691V8.10004L24.6456 7.87521L23.7691 8.35653ZM19.7794 2.09091H22.7251V0.0909088H19.7794V2.09091ZM21.8325 1.54187L24.139 6.10685L25.9241 5.20494L23.6176 0.63995L21.8325 1.54187ZM25.0315 6.65589H25.1274V4.65589H25.0315V6.65589ZM26.0199 6.10685L28.3264 1.54187L26.5413 0.63995L24.2349 5.20494L26.0199 6.10685ZM27.4339 2.09091H30.3795V0.0909088H27.4339V2.09091ZM29.503 0.609582L25.5133 7.87521L27.2664 8.83786L31.2561 1.57224L29.503 0.609582ZM25.3898 8.35653V12H27.3898V8.35653H25.3898ZM26.3898 11H23.7691V13H26.3898V11ZM24.7691 12V8.35653H22.7691V12H24.7691ZM24.6456 7.87521L20.6559 0.609582L18.9028 1.57224L22.8925 8.83786L24.6456 7.87521ZM40.3711 9.59766L39.4961 9.11359L39.4961 9.1136L40.3711 9.59766ZM38.4961 11.4993L38.0145 10.6229L38.0128 10.6238L38.4961 11.4993ZM33.2067 11.494L33.693 10.6202L33.693 10.6202L33.2067 11.494ZM31.337 9.59233L30.4604 10.0735L30.4628 10.078L31.337 9.59233ZM31.337 3.49325L30.462 3.00919L30.4604 3.01205L31.337 3.49325ZM33.2067 1.59162L33.69 2.46708L33.69 2.46708L33.2067 1.59162ZM38.4961 1.59162L38.0128 2.46708L38.0145 2.468L38.4961 1.59162ZM40.3711 3.49325L39.4961 3.97731L39.4961 3.97731L40.3711 3.49325ZM38.0646 4.74503L37.138 5.12105L37.1404 5.12679L38.0646 4.74503ZM37.2017 3.63175L36.6415 4.46015L36.6452 4.46259L37.2017 3.63175ZM34.5064 3.63175L35.0629 4.46259L35.0629 4.46259L34.5064 3.63175ZM33.6381 4.74503L32.7139 4.36326L32.7115 4.36901L33.6381 4.74503ZM33.6381 8.34588L32.7115 8.7219L32.7139 8.72764L33.6381 8.34588ZM34.5064 9.45916L35.0629 8.62832L35.0629 8.62832L34.5064 9.45916ZM37.2017 9.45916L36.6452 8.62831L36.6416 8.63077L37.2017 9.45916ZM38.0646 8.34588L37.1404 7.96411L37.138 7.96986L38.0646 8.34588ZM40.0636 6.54545C40.0636 7.61941 39.8572 8.46081 39.4961 9.11359L41.2461 10.0817C41.8083 9.06547 42.0636 7.87206 42.0636 6.54545H40.0636ZM39.4961 9.1136C39.1201 9.79321 38.6271 10.2862 38.0145 10.6229L38.9777 12.3757C39.9418 11.8459 40.6988 11.0711 41.2461 10.0817L39.4961 9.1136ZM38.0128 10.6238C37.389 10.9682 36.6771 11.1491 35.854 11.1491V13.1491C36.9841 13.1491 38.0336 12.8969 38.9794 12.3748L38.0128 10.6238ZM35.854 11.1491C35.0282 11.1491 34.3157 10.9668 33.693 10.6202L32.7204 12.3677C33.6672 12.8947 34.7197 13.1491 35.854 13.1491V11.1491ZM33.693 10.6202C33.0808 10.2795 32.5878 9.78459 32.2112 9.10669L30.4628 10.078C31.0095 11.062 31.763 11.8349 32.7204 12.3677L33.693 10.6202ZM32.2136 9.11113C31.8547 8.4573 31.6499 7.61644 31.6499 6.54545H29.6499C29.6499 7.86794 29.9031 9.05832 30.4604 10.0735L32.2136 9.11113ZM31.6499 6.54545C31.6499 5.47035 31.8549 4.62788 32.2136 3.97446L30.4604 3.01205C29.9029 4.02766 29.6499 5.21999 29.6499 6.54545H31.6499ZM32.212 3.97731C32.5886 3.29655 33.0806 2.80344 33.69 2.46708L32.7234 0.716157C31.7631 1.24627 31.0087 2.02093 30.462 3.00919L32.212 3.97731ZM33.69 2.46708C34.3132 2.12301 35.0268 1.94176 35.854 1.94176V-0.058239C34.7211 -0.058239 33.6697 0.193753 32.7234 0.716157L33.69 2.46708ZM35.854 1.94176C36.6771 1.94176 37.389 2.12271 38.0128 2.46708L38.9794 0.716157C38.0336 0.19405 36.9841 -0.058239 35.854 -0.058239V1.94176ZM38.0145 2.468C38.6271 2.80469 39.1201 3.2977 39.4961 3.97731L41.2461 3.00919C40.6988 2.01977 39.9418 1.24503 38.9777 0.715237L38.0145 2.468ZM39.4961 3.97731C39.8572 4.6301 40.0636 5.47149 40.0636 6.54545H42.0636C42.0636 5.21885 41.8083 4.02544 41.2461 3.00919L39.4961 3.97731ZM39.3683 6.54545C39.3683 5.7462 39.2552 5.00792 38.9889 4.36327L37.1404 5.12679C37.2789 5.46225 37.3683 5.92426 37.3683 6.54545H39.3683ZM38.9912 4.36901C38.7301 3.72554 38.327 3.18192 37.7582 2.8009L36.6452 4.46259C36.8292 4.58584 37.0014 4.7844 37.138 5.12105L38.9912 4.36901ZM37.7619 2.80336C37.1973 2.4216 36.545 2.25355 35.854 2.25355V4.25355C36.2143 4.25355 36.4604 4.33763 36.6416 4.46014L37.7619 2.80336ZM35.854 2.25355C35.1649 2.25355 34.515 2.42241 33.9499 2.8009L35.0629 4.46259C35.2507 4.33682 35.4992 4.25355 35.854 4.25355V2.25355ZM33.9499 2.8009C33.3827 3.1808 32.9786 3.72229 32.7139 4.36327L34.5624 5.12679C34.7025 4.78765 34.8772 4.58695 35.0629 4.46259L33.9499 2.8009ZM32.7115 4.36901C32.4507 5.01182 32.3398 5.74796 32.3398 6.54545H34.3398C34.3398 5.9225 34.4279 5.45835 34.5648 5.12105L32.7115 4.36901ZM32.3398 6.54545C32.3398 7.34295 32.4507 8.07909 32.7115 8.7219L34.5648 7.96986C34.4279 7.63256 34.3398 7.16841 34.3398 6.54545H32.3398ZM32.7139 8.72764C32.9786 9.36862 33.3827 9.91011 33.9499 10.29L35.0629 8.62832C34.8772 8.50395 34.7025 8.30326 34.5624 7.96412L32.7139 8.72764ZM33.9499 10.29C34.515 10.6685 35.1649 10.8374 35.854 10.8374V8.83736C35.4992 8.83736 35.2507 8.75409 35.0629 8.62832L33.9499 10.29ZM35.854 10.8374C36.545 10.8374 37.1973 10.6693 37.7619 10.2876L36.6416 8.63077C36.4604 8.75327 36.2143 8.83736 35.854 8.83736V10.8374ZM37.7582 10.29C38.327 9.90899 38.7301 9.36537 38.9912 8.7219L37.138 7.96986C37.0014 8.3065 36.8292 8.50507 36.6452 8.62832L37.7582 10.29ZM38.9889 8.72764C39.2552 8.08299 39.3683 7.34471 39.3683 6.54545H37.3683C37.3683 7.16665 37.2789 7.62866 37.1404 7.96412L38.9889 8.72764ZM42.603 12H41.603V13H42.603V12ZM42.603 1.09091V0.0909088H41.603V1.09091H42.603ZM49.5011 1.74609L49.023 2.62445L49.0277 2.62694L49.5011 1.74609ZM51.3654 3.62109L50.4836 4.09268L50.4844 4.09428L51.3654 3.62109ZM51.3654 9.46982L50.4836 8.99823L50.482 9.00122L51.3654 9.46982ZM49.5064 11.3501L49.9798 12.231L49.9828 12.2294L49.5064 11.3501ZM45.2397 9.75213H44.2397V10.7521H45.2397V9.75213ZM48.0842 9.44318L48.5223 10.3421L48.5254 10.3406L48.0842 9.44318ZM49.0483 8.42578L48.1419 8.00327L48.1405 8.00629L49.0483 8.42578ZM49.0483 4.66513L48.1432 5.09027L48.1444 5.09292L49.0483 4.66513ZM48.0735 3.65305L47.6323 4.5505L47.6413 4.55481L48.0735 3.65305ZM45.2397 3.33878V2.33878H44.2397V3.33878H45.2397ZM46.6353 11H42.603V13H46.6353V11ZM43.603 12V1.09091H41.603V12H43.603ZM42.603 2.09091H46.63V0.0909088H42.603V2.09091ZM46.63 2.09091C47.6103 2.09091 48.3957 2.28302 49.023 2.62443L49.9791 0.867753C49.0013 0.335585 47.8726 0.0909088 46.63 0.0909088V2.09091ZM49.0277 2.62694C49.6581 2.96575 50.1385 3.44734 50.4836 4.09268L52.2472 3.14951C51.7188 2.16133 50.9563 1.39291 49.9745 0.865249L49.0277 2.62694ZM50.4844 4.09428C50.8273 4.73252 51.0206 5.53538 51.0206 6.54013H53.0206C53.0206 5.27925 52.7771 4.13609 52.2464 3.14791L50.4844 4.09428ZM51.0206 6.54013C51.0206 7.54884 50.8271 8.35591 50.4836 8.99823L52.2472 9.9414C52.7773 8.9502 53.0206 7.80414 53.0206 6.54013H51.0206ZM50.482 9.00122C50.1402 9.64558 49.6614 10.1288 49.03 10.4709L49.9828 12.2294C50.9636 11.6979 51.7241 10.9276 52.2488 9.93841L50.482 9.00122ZM49.033 10.4693C48.4001 10.8095 47.6126 11 46.6353 11V13C47.8739 13 49.0005 12.7573 49.9798 12.231L49.033 10.4693ZM45.2397 10.7521H46.5341V8.75213H45.2397V10.7521ZM46.5341 10.7521C47.253 10.7521 47.9287 10.6314 48.5223 10.3421L47.646 8.54427C47.3944 8.66689 47.0368 8.75213 46.5341 8.75213V10.7521ZM48.5254 10.3406C49.1756 10.0209 49.6523 9.50263 49.9561 8.84528L48.1405 8.00629C48.0111 8.28643 47.8449 8.44646 47.6429 8.54578L48.5254 10.3406ZM49.9547 8.84829C50.2597 8.19392 50.3786 7.40369 50.3786 6.54013H48.3786C48.3786 7.24617 48.2772 7.71304 48.1419 8.00327L49.9547 8.84829ZM50.3786 6.54013C50.3786 5.67776 50.2601 4.88791 49.9522 4.23734L48.1444 5.09292C48.2769 5.37274 48.3786 5.83289 48.3786 6.54013H50.3786ZM49.9534 4.23999C49.6444 3.58201 49.1618 3.06578 48.5058 2.7513L47.6413 4.55481C47.8446 4.65226 48.0119 4.81074 48.1432 5.09026L49.9534 4.23999ZM48.5147 2.75566C47.915 2.46078 47.2284 2.33878 46.4968 2.33878V4.33878C47.0152 4.33878 47.3798 4.42629 47.6323 4.55045L48.5147 2.75566ZM46.4968 2.33878H45.2397V4.33878H46.4968V2.33878ZM44.2397 3.33878V9.75213H46.2397V3.33878H44.2397ZM55.2752 12V13H56.0098L56.2295 12.299L55.2752 12ZM52.4414 12L51.4939 11.6803L51.0486 13H52.4414V12ZM56.1222 1.09091V0.0909088H55.4042L55.1746 0.771213L56.1222 1.09091ZM59.6325 1.09091L60.58 0.771213L60.3504 0.0909088H59.6325V1.09091ZM63.3132 12V13H64.706L64.2607 11.6803L63.3132 12ZM60.4794 12L59.5253 12.2996L59.7452 13H60.4794V12ZM57.9173 3.83949L58.8713 3.53994L58.6514 2.83949H57.9173V3.83949ZM57.832 3.83949V2.83949H57.0974L56.8778 3.5405L57.832 3.83949ZM54.897 7.70668V6.70668H53.897V7.70668H54.897ZM60.8203 7.70668H61.8203V6.70668H60.8203V7.70668ZM60.8203 9.70952V10.7095H61.8203V9.70952H60.8203ZM54.897 9.70952H53.897V10.7095H54.897V9.70952ZM55.2752 11H52.4414V13H55.2752V11ZM53.3889 12.3197L57.0697 1.4106L55.1746 0.771213L51.4939 11.6803L53.3889 12.3197ZM56.1222 2.09091H59.6325V0.0909088H56.1222V2.09091ZM58.6849 1.4106L62.3657 12.3197L64.2607 11.6803L60.58 0.771213L58.6849 1.4106ZM63.3132 11H60.4794V13H63.3132V11ZM61.4335 11.7004L58.8713 3.53994L56.9632 4.13904L59.5253 12.2996L61.4335 11.7004ZM57.9173 2.83949H57.832V4.83949H57.9173V2.83949ZM56.8778 3.5405L54.321 11.701L56.2295 12.299L58.7863 4.13847L56.8778 3.5405ZM54.897 8.70668H60.8203V6.70668H54.897V8.70668ZM59.8203 7.70668V9.70952H61.8203V7.70668H59.8203ZM60.8203 8.70952H54.897V10.7095H60.8203V8.70952ZM55.897 9.70952V7.70668H53.897V9.70952H55.897ZM6.84091 26.0739L7.09965 27.0398L7.98959 26.8014L7.82478 25.895L6.84091 26.0739ZM5.72727 26.3722L4.75109 26.5891L4.97756 27.6082L5.98601 27.3381L5.72727 26.3722ZM5.51847 25.8551L4.64918 26.3494L4.65496 26.3596L4.66097 26.3696L5.51847 25.8551ZM5.07102 25.4425L4.5891 26.3187L4.59774 26.3234L4.60647 26.328L5.07102 25.4425ZM3.03764 25.6016L3.56175 26.4532L3.56764 26.4496L3.03764 25.6016ZM2.44602 26.4119L3.43148 26.5818L3.43321 26.5718L3.43474 26.5617L2.44602 26.4119ZM2.64489 27.103L1.95788 27.8296L1.95788 27.8296L2.64489 27.103ZM3.55966 27.5256L3.31183 28.4944L3.31298 28.4947L3.55966 27.5256ZM4.65341 27.804L4.90284 26.8356L4.90009 26.8349L4.65341 27.804ZM6.0554 28.5646L5.28342 29.2004L5.29029 29.2085L6.0554 28.5646ZM6.34375 29.8722L5.35736 29.7078L5.35736 29.7078L6.34375 29.8722ZM4.58878 31.8608L4.97113 32.7848L4.97113 32.7848L4.58878 31.8608ZM1.12358 31.652L0.52264 32.4513L0.526394 32.4541L1.12358 31.652ZM0.397727 30.1705L0.16685 29.1975L-0.639414 29.3888L-0.601209 30.2166L0.397727 30.1705ZM1.57102 29.892L2.56836 29.8191L2.48267 28.648L1.34015 28.9191L1.57102 29.892ZM2.00852 30.8168L1.38497 31.5987L1.39595 31.6072L2.00852 30.8168ZM4.48935 30.777L5.02623 31.6207L5.03165 31.6172L4.48935 30.777ZM5.1108 29.9318L4.12751 29.7497L4.12453 29.7658L4.12208 29.782L5.1108 29.9318ZM4.9517 29.2607L4.19042 29.9092L4.1974 29.9172L4.9517 29.2607ZM4.15625 28.858L3.91745 29.8291L3.92578 29.831L4.15625 28.858ZM2.94318 28.5597L2.70064 29.5298L2.70439 29.5307L2.94318 28.5597ZM1.52131 27.7841L0.729511 28.3949L0.733169 28.3996L1.52131 27.7841ZM1.25284 26.4716L2.23873 26.639L2.23882 26.6384L1.25284 26.4716ZM1.80966 25.3281L1.07004 24.6551L1.06637 24.6592L1.80966 25.3281ZM2.94318 24.5476L2.56142 23.6233L2.55904 23.6243L2.94318 24.5476ZM6.12997 24.7614L5.46725 25.5102L5.471 25.5135L6.12997 24.7614ZM6.58217 25.1079L5.46854 25.4062L5.98601 27.3381L7.09965 27.0398L6.58217 25.1079ZM6.70346 26.1552C6.63914 25.8658 6.52768 25.5935 6.37596 25.3406L4.66097 26.3696C4.70812 26.4482 4.73587 26.5206 4.75109 26.5891L6.70346 26.1552ZM6.38776 25.3608C6.18149 24.9981 5.87729 24.7362 5.53557 24.5569L4.60647 26.328C4.63968 26.3454 4.6537 26.3576 4.65658 26.3603C4.65864 26.3622 4.65428 26.3584 4.64918 26.3494L6.38776 25.3608ZM5.55294 24.5663C5.14927 24.3442 4.68867 24.2784 4.25568 24.2784V26.2784C4.37705 26.2784 4.46325 26.2882 4.52077 26.2998C4.57826 26.3113 4.59588 26.3224 4.5891 26.3187L5.55294 24.5663ZM4.25568 24.2784C3.62959 24.2784 3.03394 24.4246 2.50764 24.7536L3.56764 26.4496C3.73074 26.3476 3.94711 26.2784 4.25568 26.2784V24.2784ZM2.51355 24.7499C1.97849 25.0792 1.5607 25.5798 1.45731 26.2621L3.43474 26.5617C3.43542 26.5572 3.43593 26.5568 3.43532 26.5582C3.43473 26.5597 3.43506 26.5581 3.43888 26.5529C3.4466 26.5423 3.47736 26.5051 3.56174 26.4532L2.51355 24.7499ZM1.46056 26.242C1.36493 26.7967 1.48879 27.3861 1.95788 27.8296L3.3319 26.3763C3.34569 26.3894 3.36361 26.4096 3.38085 26.4376C3.39825 26.4658 3.41117 26.4956 3.41945 26.5244C3.43625 26.5828 3.42671 26.6095 3.43148 26.5818L1.46056 26.242ZM1.95788 27.8296C2.32499 28.1767 2.82758 28.3705 3.31183 28.4944L3.80749 26.5568C3.63545 26.5128 3.51288 26.4685 3.42967 26.4301C3.34445 26.3907 3.32264 26.3676 3.3319 26.3763L1.95788 27.8296ZM3.31298 28.4947L4.40673 28.7731L4.90009 26.8349L3.80634 26.5565L3.31298 28.4947ZM4.40398 28.7724C4.96022 28.9156 5.19518 29.0931 5.28347 29.2003L6.82733 27.9289C6.35879 27.36 5.65909 27.0304 4.90284 26.8356L4.40398 28.7724ZM5.29029 29.2085C5.33863 29.266 5.41147 29.3831 5.35736 29.7078L7.33014 30.0366C7.45501 29.2874 7.33561 28.5328 6.82051 27.9207L5.29029 29.2085ZM5.35736 29.7078C5.31694 29.9502 5.21422 30.169 5.02659 30.3789L6.51745 31.712C6.9463 31.2325 7.22472 30.6691 7.33014 30.0366L5.35736 29.7078ZM5.02659 30.3789C4.83036 30.5983 4.56562 30.7881 4.20643 30.9368L4.97113 32.7848C5.57311 32.5357 6.0972 32.182 6.51745 31.712L5.02659 30.3789ZM4.20643 30.9368C3.86228 31.0792 3.45925 31.1591 2.98295 31.1591V33.1591C3.68658 33.1591 4.3541 33.0401 4.97113 32.7848L4.20643 30.9368ZM2.98295 31.1591C2.33104 31.1591 1.94664 31.0181 1.72077 30.8499L0.526394 32.4541C1.20866 32.9621 2.06385 33.1591 2.98295 33.1591V31.1591ZM1.72451 30.8527C1.54359 30.7167 1.41489 30.5193 1.39666 30.1243L-0.601209 30.2166C-0.559777 31.1143 -0.204573 31.9045 0.522647 32.4513L1.72451 30.8527ZM0.628605 31.1434L1.8019 30.865L1.34015 28.9191L0.16685 29.1975L0.628605 31.1434ZM0.573689 29.965C0.619028 30.5847 0.858289 31.1785 1.38504 31.5986L2.63201 30.0349C2.62259 30.0274 2.61561 30.0201 2.60671 30.0013C2.59586 29.9784 2.57602 29.9238 2.56836 29.8191L0.573689 29.965ZM1.39595 31.6072C1.897 31.9955 2.51441 32.125 3.12216 32.125V30.125C2.77537 30.125 2.65035 30.049 2.62109 30.0263L1.39595 31.6072ZM3.12216 32.125C3.80908 32.125 4.46357 31.9787 5.02622 31.6206L3.95247 29.9333C3.78596 30.0393 3.52899 30.125 3.12216 30.125V32.125ZM5.03165 31.6172C5.5585 31.2771 5.99457 30.7742 6.09951 30.0816L4.12208 29.782C4.122 29.7825 4.122 29.7824 4.12216 29.7818C4.12233 29.7812 4.12246 29.7809 4.1224 29.781C4.12233 29.7812 4.12181 29.7824 4.12043 29.7848C4.11904 29.7873 4.11657 29.7913 4.1125 29.7968C4.09593 29.8193 4.05094 29.8697 3.94705 29.9368L5.03165 31.6172ZM6.09408 30.1139C6.18989 29.5965 6.09368 29.0495 5.70601 28.6041L4.1974 29.9172C4.1725 29.8886 4.14733 29.8442 4.13527 29.7933C4.12426 29.7469 4.13172 29.727 4.12751 29.7497L6.09408 30.1139ZM5.71295 28.6122C5.35859 28.1962 4.84863 27.9943 4.38672 27.8849L3.92578 29.831C4.06 29.8628 4.14216 29.8953 4.18683 29.9179C4.23115 29.9404 4.2197 29.9434 4.19046 29.9091L5.71295 28.6122ZM4.39504 27.8869L3.18197 27.5886L2.70439 29.5307L3.91746 29.829L4.39504 27.8869ZM3.18572 27.5895C2.60884 27.4453 2.38467 27.2649 2.30945 27.1686L0.733169 28.3996C1.2015 28.9993 1.92525 29.336 2.70065 29.5298L3.18572 27.5895ZM2.31309 27.1733C2.25115 27.093 2.18506 26.9551 2.23873 26.639L0.266954 26.3042C0.141648 27.0421 0.254529 27.7792 0.729525 28.3949L2.31309 27.1733ZM2.23882 26.6384C2.27942 26.3986 2.3788 26.1906 2.55295 25.9971L1.06637 24.6592C0.643932 25.1285 0.372097 25.6829 0.26686 26.3047L2.23882 26.6384ZM2.54926 26.0012C2.74288 25.7884 2.9953 25.609 3.32732 25.4709L2.55904 23.6243C1.98292 23.864 1.47966 24.205 1.07005 24.6551L2.54926 26.0012ZM3.32494 25.4718C3.65131 25.337 4.01749 25.2642 4.43466 25.2642V23.2642C3.77796 23.2642 3.14983 23.3803 2.56142 23.6233L3.32494 25.4718ZM4.43466 25.2642C5.06695 25.2642 5.34933 25.4059 5.46726 25.5102L6.79269 24.0125C6.16156 23.454 5.31373 23.2642 4.43466 23.2642V25.2642ZM5.471 25.5135C5.65576 25.6754 5.79305 25.9008 5.85704 26.2527L7.82478 25.895C7.6899 25.1532 7.35324 24.5036 6.78895 24.0092L5.471 25.5135ZM12.3457 24.3636L13.3331 24.5216L13.5184 23.3636H12.3457V24.3636ZM12.1866 25.358V26.358H13.0393L13.1741 25.5159L12.1866 25.358ZM8.22923 25.358L7.24179 25.2L7.05651 26.358H8.22923V25.358ZM8.38832 24.3636V23.3636H7.5356L7.40088 24.2056L8.38832 24.3636ZM9.84002 22.5341V21.5341H8.99143L8.85335 22.3714L9.84002 22.5341ZM11.0133 22.5341L11.9997 22.6985L12.1938 21.5341H11.0133V22.5341ZM9.80025 29.8125L8.81383 29.6481L8.81281 29.6545L9.80025 29.8125ZM9.82511 30.5582L8.90312 30.9455L8.90784 30.9567L8.91284 30.9678L9.82511 30.5582ZM10.1532 30.8864L9.79283 31.8192L9.80546 31.824L9.81822 31.8286L10.1532 30.8864ZM10.9537 30.946L11.1116 31.9335L11.1308 31.9304L11.1498 31.9266L10.9537 30.946ZM11.1525 30.9062L12.1497 30.831L12.0646 29.704L10.9564 29.9257L11.1525 30.9062ZM11.2321 31.9602L11.5483 32.9089L12.2879 32.6624L12.2292 31.885L11.2321 31.9602ZM10.8691 32.0497L10.6771 31.0683L10.6646 31.0708L10.6522 31.0735L10.8691 32.0497ZM9.38264 31.8857L9.82166 30.9872L9.82166 30.9872L9.38264 31.8857ZM8.71147 31.2344L9.59355 30.7633L9.59355 30.7633L8.71147 31.2344ZM8.58718 30.1307L7.60051 29.968L7.60039 29.9687L8.58718 30.1307ZM11.3583 24.2056L11.1992 25.2L13.1741 25.5159L13.3331 24.5216L11.3583 24.2056ZM12.1866 24.358H8.22923V26.358H12.1866V24.358ZM9.21667 25.5159L9.37576 24.5216L7.40088 24.2056L7.24179 25.2L9.21667 25.5159ZM8.38832 25.3636H12.3457V23.3636H8.38832V25.3636ZM9.84002 23.5341H11.0133V21.5341H9.84002V23.5341ZM10.0269 22.3697L8.81385 29.6481L10.7866 29.9769L11.9997 22.6985L10.0269 22.3697ZM8.81281 29.6545C8.75199 30.0346 8.72202 30.5143 8.90312 30.9455L10.7471 30.171C10.7738 30.2345 10.7677 30.2602 10.7661 30.2142C10.7647 30.1717 10.768 30.0933 10.7877 29.9705L8.81281 29.6545ZM8.91284 30.9678C9.07738 31.3343 9.36664 31.6545 9.79283 31.8192L10.5136 29.9536C10.5693 29.9751 10.624 30.01 10.6689 30.055C10.7121 30.0981 10.7315 30.1355 10.7374 30.1486L8.91284 30.9678ZM9.81822 31.8286C10.0841 31.9231 10.3591 31.9659 10.6355 31.9659V29.9659C10.5671 29.9659 10.5207 29.9557 10.4882 29.9441L9.81822 31.8286ZM10.6355 31.9659C10.7926 31.9659 10.9566 31.9583 11.1116 31.9335L10.7957 29.9586C10.785 29.9603 10.7368 29.9659 10.6355 29.9659V31.9659ZM11.1498 31.9266C11.2326 31.91 11.2989 31.8968 11.3486 31.8868L10.9564 29.9257C10.9067 29.9356 10.8404 29.9489 10.7575 29.9654L11.1498 31.9266ZM10.1554 30.9815L10.2349 32.0355L12.2292 31.885L12.1497 30.831L10.1554 30.9815ZM10.9158 31.0115C10.8845 31.022 10.8107 31.0422 10.6771 31.0683L11.0612 33.0311C11.2325 32.9976 11.4006 32.9581 11.5483 32.9089L10.9158 31.0115ZM10.6522 31.0735C10.5975 31.0857 10.4915 31.0994 10.3173 31.0994V33.0994C10.5805 33.0994 10.8424 33.08 11.0861 33.0259L10.6522 31.0735ZM10.3173 31.0994C10.1347 31.0994 9.97368 31.0615 9.82166 30.9872L8.94361 32.7841C9.37493 32.9949 9.837 33.0994 10.3173 33.0994V31.0994ZM9.82166 30.9872C9.72267 30.9388 9.65223 30.8731 9.59355 30.7633L7.82939 31.7055C8.08227 32.1789 8.45926 32.5475 8.94361 32.7841L9.82166 30.9872ZM9.59355 30.7633C9.57297 30.7248 9.52395 30.5974 9.57397 30.2927L7.60039 29.9687C7.50458 30.5522 7.53841 31.1607 7.82939 31.7055L9.59355 30.7633ZM9.57385 30.2934L10.8267 22.6968L8.85335 22.3714L7.60051 29.968L9.57385 30.2934ZM13.1387 30.25L12.1859 30.5536L12.1874 30.5584L13.1387 30.25ZM13.0442 28.142L14.0315 28.3011L14.0315 28.301L13.0442 28.142ZM13.7949 26.0987L12.9556 25.5551L12.9548 25.5563L13.7949 26.0987ZM15.2019 24.7464L15.6958 25.616L15.6975 25.615L15.2019 24.7464ZM18.8212 24.7713L18.2378 25.5835L18.2443 25.5881L18.8212 24.7713ZM19.8255 26.1832L18.8737 26.4901L18.8742 26.4916L19.8255 26.1832ZM19.9249 28.3011L20.912 28.4614L20.9124 28.459L19.9249 28.3011ZM19.1642 30.3345L18.3285 29.7853L18.3278 29.7865L19.1642 30.3345ZM17.7573 31.6818L18.2534 32.5501L18.2551 32.5491L17.7573 31.6818ZM17.3248 30.6925L16.7559 29.87L16.7527 29.8723L17.3248 30.6925ZM18.2892 29.6037L17.4136 29.1208L17.4109 29.1257L18.2892 29.6037ZM18.7914 28.142L19.7781 28.3044L19.7788 28.3L18.7914 28.142ZM18.7814 26.755L17.8008 26.9511L17.8011 26.9525L18.7814 26.755ZM18.2296 25.7159L17.5442 26.4441L17.5488 26.4484L18.2296 25.7159ZM15.6344 25.7358L15.0641 24.9143L15.0609 24.9166L15.6344 25.7358ZM14.6699 26.8345L13.7901 26.3593L13.7901 26.3593L14.6699 26.8345ZM14.1777 28.3011L15.1652 28.4591L15.1654 28.4574L14.1777 28.3011ZM14.1827 29.6882L13.2009 29.8785L13.2027 29.8873L14.1827 29.6882ZM14.7346 30.7173L14.0537 31.4499L14.0627 31.458L14.7346 30.7173ZM15.9078 31.1591C15.3674 31.1591 14.9921 31.0324 14.7198 30.8402L13.566 32.4738C14.2417 32.951 15.043 33.1591 15.9078 33.1591V31.1591ZM14.7198 30.8402C14.4389 30.6417 14.2254 30.3595 14.0899 29.9416L12.1874 30.5584C12.443 31.3469 12.8991 32.0027 13.566 32.4738L14.7198 30.8402ZM14.0915 29.9464C13.9584 29.5288 13.9203 28.9909 14.0315 28.3011L12.0569 27.9829C11.9096 28.8973 11.9345 29.7648 12.1859 30.5536L14.0915 29.9464ZM14.0315 28.301C14.1387 27.6354 14.3458 27.089 14.635 26.6412L12.9548 25.5563C12.495 26.2685 12.2016 27.0843 12.0569 27.9831L14.0315 28.301ZM14.6342 26.6424C14.9318 26.1829 15.2862 25.8487 15.6958 25.616L14.708 23.8769C13.9973 24.2806 13.4137 24.8479 12.9556 25.5551L14.6342 26.6424ZM15.6975 25.615C16.1034 25.3834 16.5513 25.2642 17.0613 25.2642V23.2642C16.219 23.2642 15.4272 23.4665 14.7063 23.8779L15.6975 25.615ZM17.0613 25.2642C17.6 25.2642 17.9707 25.3916 18.2378 25.5835L19.4046 23.9591C18.7305 23.4749 17.9279 23.2642 17.0613 23.2642V25.2642ZM18.2443 25.5881C18.5239 25.7856 18.7377 26.0683 18.8737 26.4901L20.7772 25.8764C20.5221 25.0852 20.0664 24.4265 19.3981 23.9545L18.2443 25.5881ZM18.8742 26.4916C19.0089 26.9071 19.0488 27.4466 18.9374 28.1433L20.9124 28.459C21.0595 27.5382 21.0331 26.6658 20.7767 25.8749L18.8742 26.4916ZM18.9378 28.1408C18.8314 28.7959 18.6229 29.3375 18.3285 29.7853L19.9999 30.8837C20.4679 30.1715 20.7664 29.3575 20.912 28.4614L18.9378 28.1408ZM18.3278 29.7865C18.0302 30.2407 17.674 30.5766 17.2595 30.8145L18.2551 32.5491C18.9608 32.1441 19.5426 31.5817 20.0007 30.8825L18.3278 29.7865ZM17.2611 30.8136C16.8637 31.0407 16.4198 31.1591 15.9078 31.1591V33.1591C16.7482 33.1591 17.5372 32.9593 18.2534 32.5501L17.2611 30.8136ZM15.9277 32.1051C16.6444 32.1051 17.3153 31.9183 17.8968 31.5127L16.7527 29.8723C16.5454 30.0169 16.2849 30.1051 15.9277 30.1051V32.1051ZM17.8936 31.5149C18.4279 31.1454 18.8523 30.6612 19.1676 30.0816L17.4109 29.1257C17.2357 29.4477 17.0171 29.6894 16.7559 29.87L17.8936 31.5149ZM19.1649 30.0866C19.4702 29.533 19.674 28.9369 19.7781 28.3044L17.8046 27.9797C17.7364 28.3945 17.6054 28.7729 17.4136 29.1208L19.1649 30.0866ZM19.7788 28.3C19.8744 27.7028 19.8748 27.1187 19.7617 26.5574L17.8011 26.9525C17.8604 27.2464 17.8675 27.587 17.8039 27.9841L19.7788 28.3ZM19.762 26.5589C19.6408 25.9526 19.3671 25.4079 18.9104 24.9834L17.5488 26.4484C17.6555 26.5475 17.7497 26.6956 17.8008 26.9511L19.762 26.5589ZM18.9149 24.9877C18.3947 24.4981 17.7229 24.3182 17.0414 24.3182V26.3182C17.3806 26.3182 17.501 26.4035 17.5442 26.4441L18.9149 24.9877ZM17.0414 24.3182C16.3219 24.3182 15.6493 24.5081 15.0641 24.9143L16.2047 26.5573C16.4216 26.4067 16.687 26.3182 17.0414 26.3182V24.3182ZM15.0609 24.9166C14.5277 25.2898 14.1045 25.7771 13.7901 26.3593L15.5498 27.3098C15.7258 26.9838 15.9456 26.7386 16.2079 26.555L15.0609 24.9166ZM13.7901 26.3593C13.4896 26.9155 13.2901 27.5126 13.19 28.1449L15.1654 28.4574C15.2311 28.0423 15.3597 27.6617 15.5498 27.3098L13.7901 26.3593ZM13.1903 28.1431C13.0951 28.7381 13.0927 29.3197 13.201 29.8785L15.1644 29.498C15.107 29.2017 15.1013 28.8585 15.1652 28.4591L13.1903 28.1431ZM13.2027 29.8873C13.325 30.4894 13.6002 31.0282 14.0538 31.4498L15.4153 29.9848C15.3055 29.8828 15.2127 29.7355 15.1627 29.4892L13.2027 29.8873ZM14.0627 31.458C14.585 31.9317 15.2516 32.1051 15.9277 32.1051V30.1051C15.583 30.1051 15.4542 30.02 15.4064 29.9766L14.0627 31.458ZM21.1094 32L20.123 31.8356L19.9289 33H21.1094V32ZM22.3821 24.3636V23.3636H21.535L21.3957 24.1992L22.3821 24.3636ZM23.5156 24.3636L24.5011 24.5335L24.7028 23.3636H23.5156V24.3636ZM23.3168 25.517L22.3313 25.3471L22.1296 26.517H23.3168V25.517ZM23.3963 25.517V26.517H24L24.2812 25.9828L23.3963 25.517ZM24.3061 24.5973L23.8062 23.7312L23.8062 23.7312L24.3061 24.5973ZM25.9268 24.2493L25.9005 25.2489L25.9137 25.2493H25.9268V24.2493ZM26.2202 24.2642L27.2066 24.4286L27.3748 23.419L26.3616 23.2743L26.2202 24.2642ZM26.0213 25.4574L25.7788 26.4275L26.8296 26.6902L27.0077 25.6218L26.0213 25.4574ZM25.7528 25.4126L25.5884 26.399L25.5999 26.4009L25.6114 26.4026L25.7528 25.4126ZM24.2763 25.6115L24.7121 26.5116L24.7197 26.5078L24.2763 25.6115ZM23.4858 26.2479L24.2704 26.8678L24.2741 26.8631L23.4858 26.2479ZM23.0781 27.1676L22.0927 26.9971L22.0914 27.0052L23.0781 27.1676ZM22.2827 32V33H23.1315L23.2694 32.1624L22.2827 32ZM22.0958 32.1644L23.3685 24.528L21.3957 24.1992L20.123 31.8356L22.0958 32.1644ZM22.3821 25.3636H23.5156V23.3636H22.3821V25.3636ZM22.5302 24.1937L22.3313 25.3471L24.3022 25.687L24.5011 24.5335L22.5302 24.1937ZM23.3168 26.517H23.3963V24.517H23.3168V26.517ZM24.2812 25.9828C24.3833 25.7889 24.5446 25.6143 24.806 25.4634L23.8062 23.7312C23.2523 24.051 22.8071 24.4895 22.5114 25.0513L24.2812 25.9828ZM24.806 25.4634C25.0663 25.3131 25.3271 25.2443 25.6037 25.2443V23.2443C24.9655 23.2443 24.3612 23.4108 23.8062 23.7312L24.806 25.4634ZM25.6037 25.2443C25.6817 25.2443 25.7801 25.2458 25.9005 25.2489L25.9532 23.2496C25.8217 23.2462 25.7047 23.2443 25.6037 23.2443V25.2443ZM25.9268 25.2493C25.9774 25.2493 26.0159 25.2503 26.0439 25.2517C26.0732 25.2532 26.0831 25.2548 26.0787 25.2542L26.3616 23.2743C26.2223 23.2544 26.0694 23.2493 25.9268 23.2493V25.2493ZM25.2338 24.0998L25.0349 25.293L27.0077 25.6218L27.2066 24.4286L25.2338 24.0998ZM26.2638 24.4872C26.1641 24.4623 26.0199 24.4406 25.8943 24.4227L25.6114 26.4026C25.677 26.412 25.7258 26.4194 25.76 26.4251C25.777 26.428 25.7877 26.4299 25.7933 26.431C25.8008 26.4324 25.7939 26.4313 25.7788 26.4275L26.2638 24.4872ZM25.9172 24.4262C25.7174 24.3929 25.5127 24.3778 25.3054 24.3778V26.3778C25.4162 26.3778 25.5099 26.3859 25.5884 26.399L25.9172 24.4262ZM25.3054 24.3778C24.7893 24.3778 24.2934 24.4874 23.8328 24.7152L24.7197 26.5078C24.8889 26.4241 25.0791 26.3778 25.3054 26.3778V24.3778ZM23.8405 24.7115C23.39 24.9296 23.0052 25.2383 22.6975 25.6326L24.2741 26.8631C24.3906 26.7138 24.5329 26.5983 24.7121 26.5115L23.8405 24.7115ZM22.7012 25.6279C22.3834 26.0301 22.1802 26.492 22.0928 26.9971L24.0635 27.3382C24.0954 27.1538 24.164 27.0025 24.2704 26.8678L22.7012 25.6279ZM22.0914 27.0052L21.2959 31.8376L23.2694 32.1624L24.0648 27.33L22.0914 27.0052ZM22.2827 31H21.1094V33H22.2827V31ZM26.3457 32L25.3593 31.8356L25.1652 33H26.3457V32ZM27.6184 24.3636V23.3636H26.7713L26.632 24.1992L27.6184 24.3636ZM28.7917 24.3636L29.7781 24.528L29.9722 23.3636H28.7917V24.3636ZM27.519 32V33H28.3661L28.5054 32.1644L27.519 32ZM27.9714 22.8374L27.2792 23.5591L27.2865 23.566L27.9714 22.8374ZM27.9714 21.7138L27.2865 20.9851L27.2792 20.9921L27.9714 21.7138ZM29.1497 21.7138L28.4574 22.4355L28.4648 22.4424L29.1497 21.7138ZM29.1497 22.8374L28.4647 22.1087L28.4575 22.1157L29.1497 22.8374ZM27.3321 32.1644L28.6048 24.528L26.632 24.1992L25.3593 31.8356L27.3321 32.1644ZM27.6184 25.3636H28.7917V23.3636H27.6184V25.3636ZM27.8053 24.1992L26.5326 31.8356L28.5054 32.1644L29.7781 24.528L27.8053 24.1992ZM27.519 31H26.3457V33H27.519V31ZM28.563 22.071C28.5628 22.071 28.568 22.071 28.5773 22.0727C28.5868 22.0745 28.5984 22.0776 28.611 22.0825C28.6383 22.0933 28.6538 22.1063 28.6563 22.1087L27.2865 23.566C27.6388 23.8972 28.0814 24.071 28.563 24.071V22.071ZM28.6636 22.1157C28.6684 22.1203 28.6888 22.1421 28.7062 22.1822C28.7238 22.223 28.7278 22.258 28.7278 22.2756H26.7278C26.7278 22.7755 26.9265 23.2208 27.2792 23.559L28.6636 22.1157ZM28.7278 22.2756C28.7278 22.2931 28.7238 22.3281 28.7062 22.3689C28.6888 22.409 28.6684 22.4309 28.6636 22.4355L27.2792 20.9921C26.9265 21.3304 26.7278 21.7757 26.7278 22.2756H28.7278ZM28.6563 22.4424C28.6538 22.4448 28.6383 22.4578 28.611 22.4686C28.5984 22.4736 28.5868 22.4767 28.5773 22.4784C28.568 22.4801 28.5628 22.4801 28.563 22.4801V20.4801C28.0814 20.4801 27.6388 20.654 27.2865 20.9852L28.6563 22.4424ZM28.563 22.4801C28.5633 22.4801 28.5578 22.4801 28.5478 22.4783C28.5376 22.4764 28.525 22.473 28.5112 22.4675C28.4811 22.4556 28.4628 22.4406 28.4575 22.4355L29.8419 20.9921C29.49 20.6545 29.0451 20.4801 28.563 20.4801V22.4801ZM28.4648 22.4424C28.461 22.4389 28.44 22.4172 28.4216 22.3757C28.4029 22.3333 28.3983 22.2959 28.3983 22.2756H30.3983C30.3983 21.7688 30.1924 21.3215 29.8346 20.9851L28.4648 22.4424ZM28.3983 22.2756C28.3983 22.2552 28.4029 22.2178 28.4216 22.1754C28.44 22.1339 28.461 22.1123 28.4648 22.1087L29.8346 23.566C30.1924 23.2297 30.3983 22.7824 30.3983 22.2756H28.3983ZM28.4575 22.1157C28.4628 22.1106 28.4811 22.0956 28.5112 22.0836C28.525 22.0781 28.5376 22.0747 28.5478 22.0729C28.5578 22.071 28.5633 22.071 28.563 22.071V24.071C29.0451 24.071 29.49 23.8966 29.8419 23.559L28.4575 22.1157ZM31.0352 31.6719L30.4686 32.4959L30.4725 32.4986L31.0352 31.6719ZM30.0359 30.2997L29.0835 30.6047L29.084 30.6062L30.0359 30.2997ZM29.9464 28.2415L30.933 28.4045L30.933 28.4045L29.9464 28.2415ZM30.717 26.1733L31.5575 26.715L31.5589 26.7129L30.717 26.1733ZM32.1538 24.7713L32.658 25.6349L32.6617 25.6327L32.1538 24.7713ZM35.1914 24.4631L35.5304 23.5223L35.5304 23.5223L35.1914 24.4631ZM36.146 25.1094L35.4026 25.7783L35.4064 25.7825L36.146 25.1094ZM36.7077 26.2827L35.7306 26.4954L35.7306 26.4954L36.7077 26.2827ZM36.6879 28.0824L35.7016 27.9172L35.7004 27.9244L36.6879 28.0824ZM36.6083 28.5795V29.5795H37.461L37.5957 28.7375L36.6083 28.5795ZM30.7219 28.5795L29.734 28.4246L29.5529 29.5795H30.7219V28.5795ZM30.881 27.5653V26.5653H30.0257L29.8931 27.4104L30.881 27.5653ZM35.5742 27.5653V28.5653H36.4128L36.5589 27.7396L35.5742 27.5653ZM35.5146 26.4119L34.5658 26.7282L34.5687 26.7365L35.5146 26.4119ZM34.9229 25.6115L34.3482 26.4298L34.3527 26.433L34.9229 25.6115ZM32.631 25.6761L33.1564 26.527L33.1617 26.5237L32.631 25.6761ZM31.6765 26.571L32.4907 27.1516L32.4933 27.148L31.6765 26.571ZM31.1992 27.6648L30.2133 27.4975L30.2116 27.5077L31.1992 27.6648ZM31.06 28.5398L30.0724 28.3827L30.0721 28.3846L31.06 28.5398ZM31.1048 30.0511L30.1594 30.3774L30.1621 30.3848L31.1048 30.0511ZM31.7958 30.8615L31.345 31.7542L31.3522 31.7577L31.7958 30.8615ZM33.8988 30.9759L34.2079 31.9269L34.2186 31.9233L33.8988 30.9759ZM34.6097 30.5781L35.2535 31.3434L35.2605 31.3374L34.6097 30.5781ZM35.1367 29.9119L35.4208 28.9531L34.641 28.7221L34.2559 29.4385L35.1367 29.9119ZM36.2106 30.2301L37.1142 30.6585L37.6146 29.6031L36.4947 29.2713L36.2106 30.2301ZM35.44 31.2443L36.1001 31.9955L36.1006 31.995L35.44 31.2443ZM34.2866 31.9205L34.6283 32.8603L34.6323 32.8588L34.2866 31.9205ZM32.8498 31.1591C32.2641 31.1591 31.8696 31.0301 31.5978 30.8452L30.4725 32.4986C31.1553 32.9632 31.9705 33.1591 32.8498 33.1591V31.1591ZM31.6017 30.8478C31.3186 30.6532 31.1136 30.3839 30.9877 29.9932L29.084 30.6062C29.336 31.3888 29.7972 32.0343 30.4686 32.4959L31.6017 30.8478ZM30.9882 29.9947C30.8593 29.5922 30.8226 29.0727 30.933 28.4045L28.9598 28.0784C28.8117 28.9746 28.8346 29.8273 29.0835 30.6047L30.9882 29.9947ZM30.933 28.4045C31.0426 27.7414 31.2553 27.1839 31.5575 26.715L29.8764 25.6316C29.4097 26.3558 29.1087 27.1772 28.9598 28.0784L30.933 28.4045ZM31.5589 26.7129C31.8644 26.2362 32.2311 25.8841 32.6579 25.6349L31.6496 23.9077C30.9297 24.328 30.3385 24.9106 29.875 25.6337L31.5589 26.7129ZM32.6617 25.6327C33.0763 25.3883 33.5298 25.2642 34.043 25.2642V23.2642C33.184 23.2642 32.378 23.4782 31.6459 23.9099L32.6617 25.6327ZM34.043 25.2642C34.3271 25.2642 34.5951 25.3111 34.8524 25.4038L35.5304 23.5223C35.0519 23.3499 34.5543 23.2642 34.043 23.2642V25.2642ZM34.8524 25.4038C35.061 25.479 35.2415 25.5992 35.4027 25.7783L36.8892 24.4404C36.5135 24.0229 36.0576 23.7123 35.5304 23.5223L34.8524 25.4038ZM35.4064 25.7825C35.5305 25.9188 35.6527 26.1374 35.7306 26.4954L37.6849 26.07C37.5507 25.4535 37.2984 24.8899 36.8855 24.4363L35.4064 25.7825ZM35.7306 26.4954C35.8004 26.8159 35.8085 27.2785 35.7016 27.9172L37.6741 28.2475C37.8058 27.4611 37.8272 26.7239 37.6849 26.07L35.7306 26.4954ZM35.7004 27.9244L35.6209 28.4216L37.5957 28.7375L37.6753 28.2404L35.7004 27.9244ZM36.6083 27.5795H30.7219V29.5795H36.6083V27.5795ZM31.7099 28.7345L31.869 27.7203L29.8931 27.4104L29.734 28.4246L31.7099 28.7345ZM30.881 28.5653H35.5742V26.5653H30.881V28.5653ZM36.5589 27.7396C36.6581 27.1789 36.6425 26.6179 36.4604 26.0874L34.5687 26.7365C34.6186 26.8821 34.6428 27.09 34.5895 27.3911L36.5589 27.7396ZM36.4632 26.0957C36.2851 25.5614 35.9596 25.1138 35.4932 24.79L34.3527 26.433C34.4497 26.5003 34.5186 26.5864 34.5659 26.7282L36.4632 26.0957ZM35.4977 24.7932C35.0122 24.4522 34.4442 24.3182 33.864 24.3182V26.3182C34.1389 26.3182 34.2769 26.3798 34.3482 26.4298L35.4977 24.7932ZM33.864 24.3182C33.2315 24.3182 32.6372 24.4924 32.1004 24.8286L33.1617 26.5237C33.3872 26.3826 33.6148 26.3182 33.864 26.3182V24.3182ZM32.1057 24.8252C31.6114 25.1304 31.1937 25.5213 30.8597 25.994L32.4933 27.148C32.6697 26.8982 32.8883 26.6925 33.1564 26.527L32.1057 24.8252ZM30.8622 25.9905C30.534 26.4509 30.3055 26.9543 30.2133 27.4975L32.1851 27.832C32.2189 27.6328 32.3086 27.407 32.4907 27.1515L30.8622 25.9905ZM30.2116 27.5077L30.0724 28.3827L32.0476 28.6969L32.1868 27.8219L30.2116 27.5077ZM30.0721 28.3846C29.9613 29.0902 29.9537 29.7811 30.1595 30.3774L32.05 29.7249C31.9973 29.5721 31.9599 29.2554 32.0479 28.6949L30.0721 28.3846ZM30.1621 30.3848C30.3729 30.9805 30.7675 31.4625 31.345 31.7541L32.2466 29.9689C32.1679 29.9291 32.1017 29.8708 32.0474 29.7174L30.1621 30.3848ZM31.3522 31.7577C31.8577 32.0079 32.4321 32.1051 33.0288 32.1051V30.1051C32.6377 30.1051 32.3902 30.0399 32.2394 29.9653L31.3522 31.7577ZM33.0288 32.1051C33.4352 32.1051 33.8309 32.0494 34.2079 31.9269L33.5897 30.0248C33.4364 30.0747 33.2521 30.1051 33.0288 30.1051V32.1051ZM34.2186 31.9233C34.5991 31.7949 34.9466 31.6016 35.2535 31.3434L33.966 29.8129C33.8553 29.906 33.7288 29.9778 33.579 30.0284L34.2186 31.9233ZM35.2605 31.3374C35.5715 31.0709 35.8222 30.7489 36.0175 30.3854L34.2559 29.4385C34.1662 29.6053 34.0656 29.7274 33.9589 29.8189L35.2605 31.3374ZM34.8526 30.8707L35.9265 31.1889L36.4947 29.2713L35.4208 28.9531L34.8526 30.8707ZM35.307 29.8017C35.1851 30.0587 35.0127 30.2883 34.7794 30.4936L36.1006 31.995C36.5302 31.617 36.8714 31.1705 37.1142 30.6585L35.307 29.8017ZM34.7799 30.4932C34.5509 30.6944 34.275 30.859 33.9409 30.9821L34.6323 32.8588C35.1798 32.6571 35.6728 32.371 36.1001 31.9955L34.7799 30.4932ZM33.9448 30.9807C33.629 31.0955 33.2672 31.1591 32.8498 31.1591V33.1591C33.4731 33.1591 34.0692 33.0636 34.6283 32.8602L33.9448 30.9807ZM44.2472 26.0739L44.5059 27.0398L45.3958 26.8014L45.231 25.895L44.2472 26.0739ZM43.1335 26.3722L42.1573 26.5891L42.3838 27.6082L43.3923 27.3381L43.1335 26.3722ZM42.9247 25.8551L42.0554 26.3494L42.0612 26.3596L42.0672 26.3696L42.9247 25.8551ZM42.4773 25.4425L41.9954 26.3187L42.004 26.3234L42.0127 26.328L42.4773 25.4425ZM40.4439 25.6016L40.968 26.4532L40.9739 26.4496L40.4439 25.6016ZM39.8523 26.4119L40.8377 26.5818L40.8395 26.5718L40.841 26.5617L39.8523 26.4119ZM40.0511 27.103L39.3641 27.8296L39.3641 27.8296L40.0511 27.103ZM40.9659 27.5256L40.7181 28.4944L40.7192 28.4947L40.9659 27.5256ZM42.0597 27.804L42.3091 26.8356L42.3063 26.8349L42.0597 27.804ZM43.4616 28.5646L42.6897 29.2004L42.6965 29.2085L43.4616 28.5646ZM43.75 29.8722L42.7636 29.7078L42.7636 29.7078L43.75 29.8722ZM41.995 31.8608L42.3774 32.7848L42.3774 32.7848L41.995 31.8608ZM38.5298 31.652L37.9289 32.4513L37.9326 32.4541L38.5298 31.652ZM37.804 30.1705L37.5731 29.1975L36.7668 29.3888L36.805 30.2166L37.804 30.1705ZM38.9773 29.892L39.9746 29.8191L39.8889 28.648L38.7464 28.9191L38.9773 29.892ZM39.4148 30.8168L38.7912 31.5987L38.8022 31.6072L39.4148 30.8168ZM41.8956 30.777L42.4325 31.6207L42.4379 31.6172L41.8956 30.777ZM42.517 29.9318L41.5338 29.7497L41.5308 29.7658L41.5283 29.782L42.517 29.9318ZM42.358 29.2607L41.5967 29.9092L41.6036 29.9172L42.358 29.2607ZM41.5625 28.858L41.3237 29.8291L41.332 29.831L41.5625 28.858ZM40.3494 28.5597L40.1069 29.5298L40.1106 29.5307L40.3494 28.5597ZM38.9276 27.7841L38.1358 28.3949L38.1394 28.3996L38.9276 27.7841ZM38.6591 26.4716L39.645 26.639L39.6451 26.6384L38.6591 26.4716ZM39.2159 25.3281L38.4763 24.6551L38.4726 24.6592L39.2159 25.3281ZM40.3494 24.5476L39.9677 23.6233L39.9653 23.6243L40.3494 24.5476ZM43.5362 24.7614L42.8735 25.5102L42.8772 25.5135L43.5362 24.7614ZM43.9884 25.1079L42.8748 25.4062L43.3923 27.3381L44.5059 27.0398L43.9884 25.1079ZM44.1097 26.1552C44.0454 25.8658 43.9339 25.5935 43.7822 25.3406L42.0672 26.3696C42.1144 26.4482 42.1421 26.5206 42.1573 26.5891L44.1097 26.1552ZM43.794 25.3608C43.5877 24.9981 43.2835 24.7362 42.9418 24.5569L42.0127 26.328C42.0459 26.3454 42.06 26.3576 42.0628 26.3603C42.0649 26.3622 42.0605 26.3584 42.0554 26.3494L43.794 25.3608ZM42.9592 24.5663C42.5555 24.3442 42.0949 24.2784 41.6619 24.2784V26.2784C41.7833 26.2784 41.8695 26.2882 41.927 26.2998C41.9845 26.3113 42.0021 26.3224 41.9954 26.3187L42.9592 24.5663ZM41.6619 24.2784C41.0358 24.2784 40.4402 24.4246 39.9139 24.7536L40.9739 26.4496C41.137 26.3476 41.3534 26.2784 41.6619 26.2784V24.2784ZM39.9198 24.7499C39.3847 25.0792 38.9669 25.5798 38.8636 26.2621L40.841 26.5617C40.8417 26.5572 40.8422 26.5568 40.8416 26.5582C40.841 26.5597 40.8413 26.5581 40.8451 26.5529C40.8529 26.5423 40.8836 26.5051 40.968 26.4532L39.9198 24.7499ZM38.8668 26.242C38.7712 26.7967 38.895 27.3861 39.3641 27.8296L40.7381 26.3763C40.7519 26.3894 40.7699 26.4096 40.7871 26.4376C40.8045 26.4658 40.8174 26.4956 40.8257 26.5244C40.8425 26.5828 40.833 26.6095 40.8377 26.5818L38.8668 26.242ZM39.3641 27.8296C39.7312 28.1767 40.2338 28.3705 40.7181 28.4944L41.2137 26.5568C41.0417 26.5128 40.9191 26.4685 40.8359 26.4301C40.7507 26.3907 40.7289 26.3676 40.7381 26.3763L39.3641 27.8296ZM40.7192 28.4947L41.813 28.7731L42.3063 26.8349L41.2126 26.5565L40.7192 28.4947ZM41.8102 28.7724C42.3665 28.9156 42.6014 29.0931 42.6897 29.2003L44.2336 27.9289C43.765 27.36 43.0653 27.0304 42.3091 26.8356L41.8102 28.7724ZM42.6965 29.2085C42.7449 29.266 42.8177 29.3831 42.7636 29.7078L44.7364 30.0366C44.8613 29.2874 44.7419 28.5328 44.2268 27.9207L42.6965 29.2085ZM42.7636 29.7078C42.7232 29.9502 42.6205 30.169 42.4328 30.3789L43.9237 31.712C44.3525 31.2325 44.631 30.6691 44.7364 30.0366L42.7636 29.7078ZM42.4328 30.3789C42.2366 30.5983 41.9719 30.7881 41.6127 30.9368L42.3774 32.7848C42.9794 32.5357 43.5034 32.182 43.9237 31.712L42.4328 30.3789ZM41.6127 30.9368C41.2685 31.0792 40.8655 31.1591 40.3892 31.1591V33.1591C41.0928 33.1591 41.7603 33.0401 42.3774 32.7848L41.6127 30.9368ZM40.3892 31.1591C39.7373 31.1591 39.3529 31.0181 39.127 30.8499L37.9326 32.4541C38.6149 32.9621 39.4701 33.1591 40.3892 33.1591V31.1591ZM39.1308 30.8527C38.9498 30.7167 38.8211 30.5193 38.8029 30.1243L36.805 30.2166C36.8465 31.1143 37.2017 31.9045 37.9289 32.4513L39.1308 30.8527ZM38.0349 31.1434L39.2082 30.865L38.7464 28.9191L37.5731 29.1975L38.0349 31.1434ZM37.9799 29.965C38.0253 30.5847 38.2645 31.1785 38.7913 31.5986L40.0383 30.0349C40.0288 30.0274 40.0219 30.0201 40.013 30.0013C40.0021 29.9784 39.9823 29.9238 39.9746 29.8191L37.9799 29.965ZM38.8022 31.6072C39.3032 31.9955 39.9207 32.125 40.5284 32.125V30.125C40.1816 30.125 40.0566 30.049 40.0273 30.0263L38.8022 31.6072ZM40.5284 32.125C41.2153 32.125 41.8698 31.9787 42.4325 31.6206L41.3587 29.9333C41.1922 30.0393 40.9352 30.125 40.5284 30.125V32.125ZM42.4379 31.6172C42.9647 31.2771 43.4008 30.7742 43.5058 30.0816L41.5283 29.782C41.5282 29.7825 41.5282 29.7824 41.5284 29.7818C41.5286 29.7812 41.5287 29.7809 41.5287 29.781C41.5286 29.7812 41.5281 29.7824 41.5267 29.7848C41.5253 29.7873 41.5228 29.7913 41.5187 29.7968C41.5022 29.8193 41.4572 29.8697 41.3533 29.9368L42.4379 31.6172ZM43.5003 30.1139C43.5961 29.5965 43.4999 29.0495 43.1123 28.6041L41.6036 29.9172C41.5787 29.8886 41.5536 29.8442 41.5415 29.7933C41.5305 29.7469 41.538 29.727 41.5338 29.7497L43.5003 30.1139ZM43.1192 28.6122C42.7648 28.1962 42.2549 27.9943 41.793 27.8849L41.332 29.831C41.4662 29.8628 41.5484 29.8953 41.5931 29.9179C41.6374 29.9404 41.6259 29.9434 41.5967 29.9091L43.1192 28.6122ZM41.8013 27.8869L40.5882 27.5886L40.1106 29.5307L41.3237 29.829L41.8013 27.8869ZM40.592 27.5895C40.0151 27.4453 39.7909 27.2649 39.7157 27.1686L38.1394 28.3996C38.6078 28.9993 39.3315 29.336 40.1069 29.5298L40.592 27.5895ZM39.7193 27.1733C39.6574 27.093 39.5913 26.9551 39.645 26.639L37.6732 26.3042C37.5479 27.0421 37.6608 27.7792 38.1358 28.3949L39.7193 27.1733ZM39.6451 26.6384C39.6857 26.3986 39.785 26.1906 39.9592 25.9971L38.4726 24.6592C38.0502 25.1285 37.7783 25.6829 37.6731 26.3047L39.6451 26.6384ZM39.9555 26.0012C40.1491 25.7884 40.4016 25.609 40.7336 25.4709L39.9653 23.6243C39.3892 23.864 38.8859 24.205 38.4763 24.6551L39.9555 26.0012ZM40.7312 25.4718C41.0576 25.337 41.4237 25.2642 41.8409 25.2642V23.2642C41.1842 23.2642 40.5561 23.3803 39.9677 23.6233L40.7312 25.4718ZM41.8409 25.2642C42.4732 25.2642 42.7556 25.4059 42.8735 25.5102L44.1989 24.0125C43.5678 23.454 42.72 23.2642 41.8409 23.2642V25.2642ZM42.8772 25.5135C43.062 25.6754 43.1993 25.9008 43.2633 26.2527L45.231 25.895C45.0962 25.1532 44.7595 24.5036 44.1952 24.0092L42.8772 25.5135Z" fill="#F5F5F5"/>
</svg>
